<?xml version="1.0" encoding="UTF-8"?><svg xmlns="http://www.w3.org/2000/svg" width="1080" height="254" viewBox="0 0 1080 254" role="img" aria-labelledby="figure-title"><title id="figure-title">All 16 cores, whole documents</title><defs><clipPath id="c1"><path d="M122.475,50.975 L426.592,50.975 L426.592,205.725 L122.475,205.725 Z"/></clipPath><path id="m2" d="M4.5,0 C4.5,2.485 2.485,4.5 0,4.5 C-2.485,4.5 -4.5,2.485 -4.5,0 C-4.5,-2.485 -2.485,-4.5 0,-4.5 C2.485,-4.5 4.5,-2.485 4.5,0 Z" fill="#8c959f"/><path id="m3" d="M4.5,0 C4.5,2.485 2.485,4.5 0,4.5 C-2.485,4.5 -4.5,2.485 -4.5,0 C-4.5,-2.485 -2.485,-4.5 0,-4.5 C2.485,-4.5 4.5,-2.485 4.5,0 Z" fill="#2a78d6"/><path id="m4" d="M4.5,0 C4.5,2.485 2.485,4.5 0,4.5 C-2.485,4.5 -4.5,2.485 -4.5,0 C-4.5,-2.485 -2.485,-4.5 0,-4.5 C2.485,-4.5 4.5,-2.485 4.5,0 Z" fill="#7fb0ea"/><clipPath id="c5"><path d="M438.592,50.975 L742.709,50.975 L742.709,205.725 L438.592,205.725 Z"/></clipPath><clipPath id="c6"><path d="M754.709,50.975 L1058.826,50.975 L1058.826,205.725 L754.709,205.725 Z"/></clipPath></defs><path d="M0,0 L1080,0 L1080,254 L0,254 Z" fill="#ffffff"/><polyline fill="none" points="134.523,50.975 134.523,205.725" stroke="#e4e3df"/><polyline fill="none" points="266.956,50.975 266.956,205.725" stroke="#e4e3df"/><polyline fill="none" points="399.388,50.975 399.388,205.725" stroke="#e4e3df"/><polyline fill="none" points="122.475,205.725 426.592,205.725" stroke="#333333"/><polyline fill="none" points="122.475,50.975 122.475,205.725" stroke="#333333"/><polyline fill="none" points="128.464,205.725 128.464,208.475" stroke="#333333"/><polyline fill="none" points="134.523,205.725 134.523,210.725" stroke="#333333"/><text x="134.523" y="214.725" font-family="sans-serif" font-size="11" text-anchor="middle" dominant-baseline="hanging" fill="#818b98">0.1×</text><polyline fill="none" points="174.389,205.725 174.389,208.475" stroke="#333333"/><polyline fill="none" points="197.71,205.725 197.71,208.475" stroke="#333333"/><polyline fill="none" points="214.256,205.725 214.256,208.475" stroke="#333333"/><polyline fill="none" points="227.09,205.725 227.09,208.475" stroke="#333333"/><polyline fill="none" points="237.576,205.725 237.576,208.475" stroke="#333333"/><polyline fill="none" points="246.442,205.725 246.442,208.475" stroke="#333333"/><polyline fill="none" points="254.122,205.725 254.122,208.475" stroke="#333333"/><polyline fill="none" points="260.896,205.725 260.896,208.475" stroke="#333333"/><polyline fill="none" points="266.956,205.725 266.956,210.725" stroke="#333333"/><text x="266.956" y="214.725" font-family="sans-serif" font-size="11" text-anchor="middle" dominant-baseline="hanging" fill="#818b98">1×</text><polyline fill="none" points="306.822,205.725 306.822,208.475" stroke="#333333"/><polyline fill="none" points="330.142,205.725 330.142,208.475" stroke="#333333"/><polyline fill="none" points="346.688,205.725 346.688,208.475" stroke="#333333"/><polyline fill="none" points="359.522,205.725 359.522,208.475" stroke="#333333"/><polyline fill="none" points="370.008,205.725 370.008,208.475" stroke="#333333"/><polyline fill="none" points="378.874,205.725 378.874,208.475" stroke="#333333"/><polyline fill="none" points="386.554,205.725 386.554,208.475" stroke="#333333"/><polyline fill="none" points="393.328,205.725 393.328,208.475" stroke="#333333"/><polyline fill="none" points="399.388,205.725 399.388,210.725" stroke="#333333"/><text x="399.388" y="214.725" font-family="sans-serif" font-size="11" text-anchor="middle" dominant-baseline="hanging" fill="#818b98">10×</text><polyline fill="none" points="117.475,192.829 122.475,192.829" stroke="#333333"/><text x="113.475" y="192.829" font-family="sans-serif" font-size="11" text-anchor="end" dominant-baseline="central" fill="#818b98">pdf.js</text><polyline fill="none" points="117.475,167.037 122.475,167.037" stroke="#333333"/><text x="113.475" y="167.037" font-family="sans-serif" font-size="11" text-anchor="end" dominant-baseline="central" fill="#818b98">hayro</text><polyline fill="none" points="117.475,141.246 122.475,141.246" stroke="#333333"/><text x="113.475" y="141.246" font-family="sans-serif" font-size="11" text-anchor="end" dominant-baseline="central" fill="#818b98">PDFium</text><polyline fill="none" points="117.475,115.454 122.475,115.454" stroke="#333333"/><text x="113.475" y="115.454" font-family="sans-serif" font-size="11" text-anchor="end" dominant-baseline="central" fill="#818b98">cera (bitmap reused)</text><polyline fill="none" points="117.475,89.662 122.475,89.662" stroke="#333333"/><text x="113.475" y="89.662" font-family="sans-serif" font-size="11" text-anchor="end" dominant-baseline="central" fill="#818b98">cera</text><polyline fill="none" points="117.475,63.871 122.475,63.871" stroke="#333333"/><text x="113.475" y="63.871" font-family="sans-serif" font-size="11" text-anchor="end" dominant-baseline="central" fill="#818b98">MuPDF</text><path d="M122.475,32.8 L426.592,32.8 L426.592,50.975 L122.475,50.975 Z" fill="#eeeff1"/><path fill="none" d="M122.475,32.8 L426.592,32.8 L426.592,50.975 L122.475,50.975 Z" stroke="#e4e3df"/><text x="274.534" y="41.887" font-family="sans-serif" font-size="11" text-anchor="middle" dominant-baseline="central" fill="#59636e">all files · 41</text><polyline fill="none" points="450.64,50.975 450.64,205.725" stroke="#e4e3df"/><polyline fill="none" points="583.073,50.975 583.073,205.725" stroke="#e4e3df"/><polyline fill="none" points="715.505,50.975 715.505,205.725" stroke="#e4e3df"/><polyline fill="none" points="438.592,205.725 742.709,205.725" stroke="#333333"/><polyline fill="none" points="438.592,50.975 438.592,205.725" stroke="#333333"/><polyline fill="none" points="444.581,205.725 444.581,208.475" stroke="#333333"/><polyline fill="none" points="450.64,205.725 450.64,210.725" stroke="#333333"/><text x="450.64" y="214.725" font-family="sans-serif" font-size="11" text-anchor="middle" dominant-baseline="hanging" fill="#818b98">0.1×</text><polyline fill="none" points="490.506,205.725 490.506,208.475" stroke="#333333"/><polyline fill="none" points="513.827,205.725 513.827,208.475" stroke="#333333"/><polyline fill="none" points="530.373,205.725 530.373,208.475" stroke="#333333"/><polyline fill="none" points="543.207,205.725 543.207,208.475" stroke="#333333"/><polyline fill="none" points="553.693,205.725 553.693,208.475" stroke="#333333"/><polyline fill="none" points="562.559,205.725 562.559,208.475" stroke="#333333"/><polyline fill="none" points="570.239,205.725 570.239,208.475" stroke="#333333"/><polyline fill="none" points="577.013,205.725 577.013,208.475" stroke="#333333"/><polyline fill="none" points="583.073,205.725 583.073,210.725" stroke="#333333"/><text x="583.073" y="214.725" font-family="sans-serif" font-size="11" text-anchor="middle" dominant-baseline="hanging" fill="#818b98">1×</text><polyline fill="none" points="622.939,205.725 622.939,208.475" stroke="#333333"/><polyline fill="none" points="646.259,205.725 646.259,208.475" stroke="#333333"/><polyline fill="none" points="662.805,205.725 662.805,208.475" stroke="#333333"/><polyline fill="none" points="675.639,205.725 675.639,208.475" stroke="#333333"/><polyline fill="none" points="686.125,205.725 686.125,208.475" stroke="#333333"/><polyline fill="none" points="694.991,205.725 694.991,208.475" stroke="#333333"/><polyline fill="none" points="702.671,205.725 702.671,208.475" stroke="#333333"/><polyline fill="none" points="709.445,205.725 709.445,208.475" stroke="#333333"/><polyline fill="none" points="715.505,205.725 715.505,210.725" stroke="#333333"/><text x="715.505" y="214.725" font-family="sans-serif" font-size="11" text-anchor="middle" dominant-baseline="hanging" fill="#818b98">10×</text><polyline fill="none" points="433.592,192.829 438.592,192.829" stroke="#333333"/><polyline fill="none" points="433.592,167.037 438.592,167.037" stroke="#333333"/><polyline fill="none" points="433.592,141.246 438.592,141.246" stroke="#333333"/><polyline fill="none" points="433.592,115.454 438.592,115.454" stroke="#333333"/><polyline fill="none" points="433.592,89.662 438.592,89.662" stroke="#333333"/><polyline fill="none" points="433.592,63.871 438.592,63.871" stroke="#333333"/><path d="M438.592,32.8 L742.709,32.8 L742.709,50.975 L438.592,50.975 Z" fill="#eeeff1"/><path fill="none" d="M438.592,32.8 L742.709,32.8 L742.709,50.975 L438.592,50.975 Z" stroke="#e4e3df"/><text x="590.651" y="41.887" font-family="sans-serif" font-size="11" text-anchor="middle" dominant-baseline="central" fill="#59636e">documents of 5+ pages · 6</text><polyline fill="none" points="766.757,50.975 766.757,205.725" stroke="#e4e3df"/><polyline fill="none" points="899.19,50.975 899.19,205.725" stroke="#e4e3df"/><polyline fill="none" points="1031.622,50.975 1031.622,205.725" stroke="#e4e3df"/><polyline fill="none" points="754.709,205.725 1058.826,205.725" stroke="#333333"/><polyline fill="none" points="754.709,50.975 754.709,205.725" stroke="#333333"/><polyline fill="none" points="760.698,205.725 760.698,208.475" stroke="#333333"/><polyline fill="none" points="766.757,205.725 766.757,210.725" stroke="#333333"/><text x="766.757" y="214.725" font-family="sans-serif" font-size="11" text-anchor="middle" dominant-baseline="hanging" fill="#818b98">0.1×</text><polyline fill="none" points="806.624,205.725 806.624,208.475" stroke="#333333"/><polyline fill="none" points="829.944,205.725 829.944,208.475" stroke="#333333"/><polyline fill="none" points="846.49,205.725 846.49,208.475" stroke="#333333"/><polyline fill="none" points="859.324,205.725 859.324,208.475" stroke="#333333"/><polyline fill="none" points="869.81,205.725 869.81,208.475" stroke="#333333"/><polyline fill="none" points="878.676,205.725 878.676,208.475" stroke="#333333"/><polyline fill="none" points="886.356,205.725 886.356,208.475" stroke="#333333"/><polyline fill="none" points="893.13,205.725 893.13,208.475" stroke="#333333"/><polyline fill="none" points="899.19,205.725 899.19,210.725" stroke="#333333"/><text x="899.19" y="214.725" font-family="sans-serif" font-size="11" text-anchor="middle" dominant-baseline="hanging" fill="#818b98">1×</text><polyline fill="none" points="939.056,205.725 939.056,208.475" stroke="#333333"/><polyline fill="none" points="962.376,205.725 962.376,208.475" stroke="#333333"/><polyline fill="none" points="978.922,205.725 978.922,208.475" stroke="#333333"/><polyline fill="none" points="991.756,205.725 991.756,208.475" stroke="#333333"/><polyline fill="none" points="1002.242,205.725 1002.242,208.475" stroke="#333333"/><polyline fill="none" points="1011.108,205.725 1011.108,208.475" stroke="#333333"/><polyline fill="none" points="1018.788,205.725 1018.788,208.475" stroke="#333333"/><polyline fill="none" points="1025.562,205.725 1025.562,208.475" stroke="#333333"/><polyline fill="none" points="1031.622,205.725 1031.622,210.725" stroke="#333333"/><text x="1031.622" y="214.725" font-family="sans-serif" font-size="11" text-anchor="middle" dominant-baseline="hanging" fill="#818b98">10×</text><polyline fill="none" points="749.709,192.829 754.709,192.829" stroke="#333333"/><polyline fill="none" points="749.709,167.037 754.709,167.037" stroke="#333333"/><polyline fill="none" points="749.709,141.246 754.709,141.246" stroke="#333333"/><polyline fill="none" points="749.709,115.454 754.709,115.454" stroke="#333333"/><polyline fill="none" points="749.709,89.662 754.709,89.662" stroke="#333333"/><polyline fill="none" points="749.709,63.871 754.709,63.871" stroke="#333333"/><path d="M754.709,32.8 L1058.826,32.8 L1058.826,50.975 L754.709,50.975 Z" fill="#eeeff1"/><path fill="none" d="M754.709,32.8 L1058.826,32.8 L1058.826,50.975 L754.709,50.975 Z" stroke="#e4e3df"/><text x="906.768" y="41.887" font-family="sans-serif" font-size="11" text-anchor="middle" dominant-baseline="central" fill="#59636e">one-page files · 34</text><text x="590.651" y="23.488" font-family="sans-serif" font-size="16" text-anchor="middle" fill="#1f2328">All 16 cores, whole documents</text><text x="590.651" y="239.516" font-family="sans-serif" font-size="12" text-anchor="middle" fill="#59636e">time relative to MuPDF (log scale; left is faster)</text><g clip-path="url(#c1)"><polyline fill="none" points="266.956,50.975 266.956,205.725" stroke="#818b98" stroke-dasharray="4 3"/><use href="#m2" x="266.956" y="63.871"/><use href="#m2" x="256.743" y="141.246"/><use href="#m2" x="239.674" y="167.037"/><use href="#m2" x="304.183" y="192.829"/><use href="#m3" x="179.241" y="89.662"/><use href="#m4" x="153.689" y="115.454"/><text x="276.475" y="63.871" font-family="sans-serif" font-size="11" dominant-baseline="central" fill="#59636e">1.00×</text><text x="188.76" y="89.662" font-family="sans-serif" font-size="11" dominant-baseline="central" fill="#59636e">0.22×</text><text x="163.208" y="115.454" font-family="sans-serif" font-size="11" dominant-baseline="central" fill="#59636e">0.14×</text><text x="266.262" y="141.246" font-family="sans-serif" font-size="11" dominant-baseline="central" fill="#59636e">0.84×</text><text x="249.193" y="167.037" font-family="sans-serif" font-size="11" dominant-baseline="central" fill="#59636e">0.62×</text><text x="313.703" y="192.829" font-family="sans-serif" font-size="11" dominant-baseline="central" fill="#59636e">1.91×</text></g><g clip-path="url(#c5)"><polyline fill="none" points="583.073,50.975 583.073,205.725" stroke="#818b98" stroke-dasharray="4 3"/><use href="#m2" x="583.073" y="63.871"/><use href="#m2" x="593.796" y="141.246"/><use href="#m2" x="594.482" y="167.037"/><use href="#m2" x="690.009" y="192.829"/><use href="#m3" x="548.136" y="89.662"/><use href="#m4" x="524.968" y="115.454"/><text x="592.592" y="63.871" font-family="sans-serif" font-size="11" dominant-baseline="central" fill="#59636e">1.00×</text><text x="557.656" y="89.662" font-family="sans-serif" font-size="11" dominant-baseline="central" fill="#59636e">0.54×</text><text x="534.487" y="115.454" font-family="sans-serif" font-size="11" dominant-baseline="central" fill="#59636e">0.36×</text><text x="603.316" y="141.246" font-family="sans-serif" font-size="11" dominant-baseline="central" fill="#59636e">1.20×</text><text x="604.001" y="167.037" font-family="sans-serif" font-size="11" dominant-baseline="central" fill="#59636e">1.22×</text><text x="699.528" y="192.829" font-family="sans-serif" font-size="11" dominant-baseline="central" fill="#59636e">6.42×</text></g><g clip-path="url(#c6)"><polyline fill="none" points="899.19,50.975 899.19,205.725" stroke="#818b98" stroke-dasharray="4 3"/><use href="#m2" x="899.19" y="63.871"/><use href="#m2" x="880.876" y="141.246"/><use href="#m2" x="860.703" y="167.037"/><use href="#m2" x="921.259" y="192.829"/><use href="#m3" x="804.002" y="89.662"/><use href="#m4" x="778.029" y="115.454"/><text x="908.709" y="63.871" font-family="sans-serif" font-size="11" dominant-baseline="central" fill="#59636e">1.00×</text><text x="813.521" y="89.662" font-family="sans-serif" font-size="11" dominant-baseline="central" fill="#59636e">0.19×</text><text x="787.549" y="115.454" font-family="sans-serif" font-size="11" dominant-baseline="central" fill="#59636e">0.12×</text><text x="890.395" y="141.246" font-family="sans-serif" font-size="11" dominant-baseline="central" fill="#59636e">0.73×</text><text x="870.222" y="167.037" font-family="sans-serif" font-size="11" dominant-baseline="central" fill="#59636e">0.51×</text><text x="930.779" y="192.829" font-family="sans-serif" font-size="11" dominant-baseline="central" fill="#59636e">1.47×</text></g></svg>