<?xml version="1.0" encoding="UTF-8"?><svg xmlns="http://www.w3.org/2000/svg" width="1080" height="550" viewBox="0 0 1080 550" role="img" aria-labelledby="figure-title"><title id="figure-title">One core, per page</title><defs><clipPath id="c1"><path d="M60.721,50.975 L385.423,50.975 L385.423,181.108 L60.721,181.108 Z"/></clipPath><path id="m2" d="M4.5,0 C4.5,2.485 2.485,4.5 0,4.5 C-2.485,4.5 -4.5,2.485 -4.5,0 C-4.5,-2.485 -2.485,-4.5 0,-4.5 C2.485,-4.5 4.5,-2.485 4.5,0 Z" fill="#6e7681"/><path id="m3" d="M4.5,0 C4.5,2.485 2.485,4.5 0,4.5 C-2.485,4.5 -4.5,2.485 -4.5,0 C-4.5,-2.485 -2.485,-4.5 0,-4.5 C2.485,-4.5 4.5,-2.485 4.5,0 Z" fill="#4493f8"/><clipPath id="c4"><path d="M397.423,50.975 L722.124,50.975 L722.124,181.108 L397.423,181.108 Z"/></clipPath><clipPath id="c5"><path d="M734.124,50.975 L1058.826,50.975 L1058.826,181.108 L734.124,181.108 Z"/></clipPath><clipPath id="c6"><path d="M60.721,211.283 L385.423,211.283 L385.423,341.417 L60.721,341.417 Z"/></clipPath><clipPath id="c7"><path d="M397.423,211.283 L722.124,211.283 L722.124,341.417 L397.423,341.417 Z"/></clipPath><clipPath id="c8"><path d="M734.124,211.283 L1058.826,211.283 L1058.826,341.417 L734.124,341.417 Z"/></clipPath><clipPath id="c9"><path d="M60.721,371.592 L385.423,371.592 L385.423,501.725 L60.721,501.725 Z"/></clipPath><clipPath id="c10"><path d="M397.423,371.592 L722.124,371.592 L722.124,501.725 L397.423,501.725 Z"/></clipPath><clipPath id="c11"><path d="M734.124,371.592 L1058.826,371.592 L1058.826,501.725 L734.124,501.725 Z"/></clipPath></defs><path d="M0,0 L1080,0 L1080,550 L0,550 Z" fill="#0d1117"/><polyline fill="none" points="77.847,50.975 77.847,181.108" stroke="#30363d"/><polyline fill="none" points="207.488,50.975 207.488,181.108" stroke="#30363d"/><polyline fill="none" points="337.128,50.975 337.128,181.108" stroke="#30363d"/><polyline fill="none" points="60.721,181.108 385.423,181.108" stroke="#9a9ea6"/><polyline fill="none" points="60.721,50.975 60.721,181.108" stroke="#9a9ea6"/><polyline fill="none" points="65.283,181.108 65.283,183.858" stroke="#9a9ea6"/><polyline fill="none" points="71.915,181.108 71.915,183.858" stroke="#9a9ea6"/><polyline fill="none" points="77.847,181.108 77.847,186.108" stroke="#9a9ea6"/><polyline fill="none" points="116.873,181.108 116.873,183.858" stroke="#9a9ea6"/><polyline fill="none" points="139.701,181.108 139.701,183.858" stroke="#9a9ea6"/><polyline fill="none" points="155.898,181.108 155.898,183.858" stroke="#9a9ea6"/><polyline fill="none" points="168.462,181.108 168.462,183.858" stroke="#9a9ea6"/><polyline fill="none" points="178.727,181.108 178.727,183.858" stroke="#9a9ea6"/><polyline fill="none" points="187.406,181.108 187.406,183.858" stroke="#9a9ea6"/><polyline fill="none" points="194.924,181.108 194.924,183.858" stroke="#9a9ea6"/><polyline fill="none" points="201.555,181.108 201.555,183.858" stroke="#9a9ea6"/><polyline fill="none" points="207.488,181.108 207.488,186.108" stroke="#9a9ea6"/><polyline fill="none" points="246.513,181.108 246.513,183.858" stroke="#9a9ea6"/><polyline fill="none" points="269.342,181.108 269.342,183.858" stroke="#9a9ea6"/><polyline fill="none" points="285.539,181.108 285.539,183.858" stroke="#9a9ea6"/><polyline fill="none" points="298.102,181.108 298.102,183.858" stroke="#9a9ea6"/><polyline fill="none" points="308.368,181.108 308.368,183.858" stroke="#9a9ea6"/><polyline fill="none" points="317.047,181.108 317.047,183.858" stroke="#9a9ea6"/><polyline fill="none" points="324.565,181.108 324.565,183.858" stroke="#9a9ea6"/><polyline fill="none" points="331.196,181.108 331.196,183.858" stroke="#9a9ea6"/><polyline fill="none" points="337.128,181.108 337.128,186.108" stroke="#9a9ea6"/><polyline fill="none" points="376.154,181.108 376.154,183.858" stroke="#9a9ea6"/><polyline fill="none" points="55.721,168.095 60.721,168.095" stroke="#9a9ea6"/><text x="51.721" y="168.095" font-family="sans-serif" font-size="11" text-anchor="end" dominant-baseline="central" fill="#6e7681">pdf.js</text><polyline fill="none" points="55.721,142.068 60.721,142.068" stroke="#9a9ea6"/><text x="51.721" y="142.068" font-family="sans-serif" font-size="11" text-anchor="end" dominant-baseline="central" fill="#6e7681">hayro</text><polyline fill="none" points="55.721,116.042 60.721,116.042" stroke="#9a9ea6"/><text x="51.721" y="116.042" font-family="sans-serif" font-size="11" text-anchor="end" dominant-baseline="central" fill="#6e7681">PDFium</text><polyline fill="none" points="55.721,90.015 60.721,90.015" stroke="#9a9ea6"/><text x="51.721" y="90.015" font-family="sans-serif" font-size="11" text-anchor="end" dominant-baseline="central" fill="#6e7681">cera</text><polyline fill="none" points="55.721,63.988 60.721,63.988" stroke="#9a9ea6"/><text x="51.721" y="63.988" font-family="sans-serif" font-size="11" text-anchor="end" dominant-baseline="central" fill="#6e7681">MuPDF</text><path d="M60.721,32.8 L385.423,32.8 L385.423,50.975 L60.721,50.975 Z" fill="#22262d"/><path fill="none" d="M60.721,32.8 L385.423,32.8 L385.423,50.975 L60.721,50.975 Z" stroke="#30363d"/><text x="223.072" y="41.887" font-family="sans-serif" font-size="11" text-anchor="middle" dominant-baseline="central" fill="#9198a1">all pages · 113</text><polyline fill="none" points="414.549,50.975 414.549,181.108" stroke="#30363d"/><polyline fill="none" points="544.189,50.975 544.189,181.108" stroke="#30363d"/><polyline fill="none" points="673.83,50.975 673.83,181.108" stroke="#30363d"/><polyline fill="none" points="397.423,181.108 722.124,181.108" stroke="#9a9ea6"/><polyline fill="none" points="397.423,50.975 397.423,181.108" stroke="#9a9ea6"/><polyline fill="none" points="401.985,181.108 401.985,183.858" stroke="#9a9ea6"/><polyline fill="none" points="408.617,181.108 408.617,183.858" stroke="#9a9ea6"/><polyline fill="none" points="414.549,181.108 414.549,186.108" stroke="#9a9ea6"/><polyline fill="none" points="453.574,181.108 453.574,183.858" stroke="#9a9ea6"/><polyline fill="none" points="476.403,181.108 476.403,183.858" stroke="#9a9ea6"/><polyline fill="none" points="492.6,181.108 492.6,183.858" stroke="#9a9ea6"/><polyline fill="none" points="505.163,181.108 505.163,183.858" stroke="#9a9ea6"/><polyline fill="none" points="515.429,181.108 515.429,183.858" stroke="#9a9ea6"/><polyline fill="none" points="524.108,181.108 524.108,183.858" stroke="#9a9ea6"/><polyline fill="none" points="531.626,181.108 531.626,183.858" stroke="#9a9ea6"/><polyline fill="none" points="538.257,181.108 538.257,183.858" stroke="#9a9ea6"/><polyline fill="none" points="544.189,181.108 544.189,186.108" stroke="#9a9ea6"/><polyline fill="none" points="583.215,181.108 583.215,183.858" stroke="#9a9ea6"/><polyline fill="none" points="606.044,181.108 606.044,183.858" stroke="#9a9ea6"/><polyline fill="none" points="622.241,181.108 622.241,183.858" stroke="#9a9ea6"/><polyline fill="none" points="634.804,181.108 634.804,183.858" stroke="#9a9ea6"/><polyline fill="none" points="645.069,181.108 645.069,183.858" stroke="#9a9ea6"/><polyline fill="none" points="653.748,181.108 653.748,183.858" stroke="#9a9ea6"/><polyline fill="none" points="661.266,181.108 661.266,183.858" stroke="#9a9ea6"/><polyline fill="none" points="667.898,181.108 667.898,183.858" stroke="#9a9ea6"/><polyline fill="none" points="673.83,181.108 673.83,186.108" stroke="#9a9ea6"/><polyline fill="none" points="712.856,181.108 712.856,183.858" stroke="#9a9ea6"/><polyline fill="none" points="392.423,168.095 397.423,168.095" stroke="#9a9ea6"/><polyline fill="none" points="392.423,142.068 397.423,142.068" stroke="#9a9ea6"/><polyline fill="none" points="392.423,116.042 397.423,116.042" stroke="#9a9ea6"/><polyline fill="none" points="392.423,90.015 397.423,90.015" stroke="#9a9ea6"/><polyline fill="none" points="392.423,63.988 397.423,63.988" stroke="#9a9ea6"/><path d="M397.423,32.8 L722.124,32.8 L722.124,50.975 L397.423,50.975 Z" fill="#22262d"/><path fill="none" d="M397.423,32.8 L722.124,32.8 L722.124,50.975 L397.423,50.975 Z" stroke="#30363d"/><text x="559.774" y="41.887" font-family="sans-serif" font-size="11" text-anchor="middle" dominant-baseline="central" fill="#9198a1">technical drawings · 8</text><polyline fill="none" points="751.25,50.975 751.25,181.108" stroke="#30363d"/><polyline fill="none" points="880.891,50.975 880.891,181.108" stroke="#30363d"/><polyline fill="none" points="1010.531,50.975 1010.531,181.108" stroke="#30363d"/><polyline fill="none" points="734.124,181.108 1058.826,181.108" stroke="#9a9ea6"/><polyline fill="none" points="734.124,50.975 734.124,181.108" stroke="#9a9ea6"/><polyline fill="none" points="738.687,181.108 738.687,183.858" stroke="#9a9ea6"/><polyline fill="none" points="745.318,181.108 745.318,183.858" stroke="#9a9ea6"/><polyline fill="none" points="751.25,181.108 751.25,186.108" stroke="#9a9ea6"/><polyline fill="none" points="790.276,181.108 790.276,183.858" stroke="#9a9ea6"/><polyline fill="none" points="813.105,181.108 813.105,183.858" stroke="#9a9ea6"/><polyline fill="none" points="829.302,181.108 829.302,183.858" stroke="#9a9ea6"/><polyline fill="none" points="841.865,181.108 841.865,183.858" stroke="#9a9ea6"/><polyline fill="none" points="852.13,181.108 852.13,183.858" stroke="#9a9ea6"/><polyline fill="none" points="860.809,181.108 860.809,183.858" stroke="#9a9ea6"/><polyline fill="none" points="868.327,181.108 868.327,183.858" stroke="#9a9ea6"/><polyline fill="none" points="874.959,181.108 874.959,183.858" stroke="#9a9ea6"/><polyline fill="none" points="880.891,181.108 880.891,186.108" stroke="#9a9ea6"/><polyline fill="none" points="919.917,181.108 919.917,183.858" stroke="#9a9ea6"/><polyline fill="none" points="942.745,181.108 942.745,183.858" stroke="#9a9ea6"/><polyline fill="none" points="958.942,181.108 958.942,183.858" stroke="#9a9ea6"/><polyline fill="none" points="971.506,181.108 971.506,183.858" stroke="#9a9ea6"/><polyline fill="none" points="981.771,181.108 981.771,183.858" stroke="#9a9ea6"/><polyline fill="none" points="990.45,181.108 990.45,183.858" stroke="#9a9ea6"/><polyline fill="none" points="997.968,181.108 997.968,183.858" stroke="#9a9ea6"/><polyline fill="none" points="1004.599,181.108 1004.599,183.858" stroke="#9a9ea6"/><polyline fill="none" points="1010.531,181.108 1010.531,186.108" stroke="#9a9ea6"/><polyline fill="none" points="1049.557,181.108 1049.557,183.858" stroke="#9a9ea6"/><polyline fill="none" points="729.124,168.095 734.124,168.095" stroke="#9a9ea6"/><polyline fill="none" points="729.124,142.068 734.124,142.068" stroke="#9a9ea6"/><polyline fill="none" points="729.124,116.042 734.124,116.042" stroke="#9a9ea6"/><polyline fill="none" points="729.124,90.015 734.124,90.015" stroke="#9a9ea6"/><polyline fill="none" points="729.124,63.988 734.124,63.988" stroke="#9a9ea6"/><path d="M734.124,32.8 L1058.826,32.8 L1058.826,50.975 L734.124,50.975 Z" fill="#22262d"/><path fill="none" d="M734.124,32.8 L1058.826,32.8 L1058.826,50.975 L734.124,50.975 Z" stroke="#30363d"/><text x="896.475" y="41.887" font-family="sans-serif" font-size="11" text-anchor="middle" dominant-baseline="central" fill="#9198a1">vector graphics · 2</text><polyline fill="none" points="77.847,211.283 77.847,341.417" stroke="#30363d"/><polyline fill="none" points="207.488,211.283 207.488,341.417" stroke="#30363d"/><polyline fill="none" points="337.128,211.283 337.128,341.417" stroke="#30363d"/><polyline fill="none" points="60.721,341.417 385.423,341.417" stroke="#9a9ea6"/><polyline fill="none" points="60.721,211.283 60.721,341.417" stroke="#9a9ea6"/><polyline fill="none" points="65.283,341.417 65.283,344.167" stroke="#9a9ea6"/><polyline fill="none" points="71.915,341.417 71.915,344.167" stroke="#9a9ea6"/><polyline fill="none" points="77.847,341.417 77.847,346.417" stroke="#9a9ea6"/><polyline fill="none" points="116.873,341.417 116.873,344.167" stroke="#9a9ea6"/><polyline fill="none" points="139.701,341.417 139.701,344.167" stroke="#9a9ea6"/><polyline fill="none" points="155.898,341.417 155.898,344.167" stroke="#9a9ea6"/><polyline fill="none" points="168.462,341.417 168.462,344.167" stroke="#9a9ea6"/><polyline fill="none" points="178.727,341.417 178.727,344.167" stroke="#9a9ea6"/><polyline fill="none" points="187.406,341.417 187.406,344.167" stroke="#9a9ea6"/><polyline fill="none" points="194.924,341.417 194.924,344.167" stroke="#9a9ea6"/><polyline fill="none" points="201.555,341.417 201.555,344.167" stroke="#9a9ea6"/><polyline fill="none" points="207.488,341.417 207.488,346.417" stroke="#9a9ea6"/><polyline fill="none" points="246.513,341.417 246.513,344.167" stroke="#9a9ea6"/><polyline fill="none" points="269.342,341.417 269.342,344.167" stroke="#9a9ea6"/><polyline fill="none" points="285.539,341.417 285.539,344.167" stroke="#9a9ea6"/><polyline fill="none" points="298.102,341.417 298.102,344.167" stroke="#9a9ea6"/><polyline fill="none" points="308.368,341.417 308.368,344.167" stroke="#9a9ea6"/><polyline fill="none" points="317.047,341.417 317.047,344.167" stroke="#9a9ea6"/><polyline fill="none" points="324.565,341.417 324.565,344.167" stroke="#9a9ea6"/><polyline fill="none" points="331.196,341.417 331.196,344.167" stroke="#9a9ea6"/><polyline fill="none" points="337.128,341.417 337.128,346.417" stroke="#9a9ea6"/><polyline fill="none" points="376.154,341.417 376.154,344.167" stroke="#9a9ea6"/><polyline fill="none" points="55.721,328.403 60.721,328.403" stroke="#9a9ea6"/><text x="51.721" y="328.403" font-family="sans-serif" font-size="11" text-anchor="end" dominant-baseline="central" fill="#6e7681">pdf.js</text><polyline fill="none" points="55.721,302.377 60.721,302.377" stroke="#9a9ea6"/><text x="51.721" y="302.377" font-family="sans-serif" font-size="11" text-anchor="end" dominant-baseline="central" fill="#6e7681">hayro</text><polyline fill="none" points="55.721,276.35 60.721,276.35" stroke="#9a9ea6"/><text x="51.721" y="276.35" font-family="sans-serif" font-size="11" text-anchor="end" dominant-baseline="central" fill="#6e7681">PDFium</text><polyline fill="none" points="55.721,250.323 60.721,250.323" stroke="#9a9ea6"/><text x="51.721" y="250.323" font-family="sans-serif" font-size="11" text-anchor="end" dominant-baseline="central" fill="#6e7681">cera</text><polyline fill="none" points="55.721,224.297 60.721,224.297" stroke="#9a9ea6"/><text x="51.721" y="224.297" font-family="sans-serif" font-size="11" text-anchor="end" dominant-baseline="central" fill="#6e7681">MuPDF</text><path d="M60.721,193.108 L385.423,193.108 L385.423,211.283 L60.721,211.283 Z" fill="#22262d"/><path fill="none" d="M60.721,193.108 L385.423,193.108 L385.423,211.283 L60.721,211.283 Z" stroke="#30363d"/><text x="223.072" y="202.196" font-family="sans-serif" font-size="11" text-anchor="middle" dominant-baseline="central" fill="#9198a1">papers (arXiv) · 58</text><polyline fill="none" points="414.549,211.283 414.549,341.417" stroke="#30363d"/><polyline fill="none" points="544.189,211.283 544.189,341.417" stroke="#30363d"/><polyline fill="none" points="673.83,211.283 673.83,341.417" stroke="#30363d"/><polyline fill="none" points="397.423,341.417 722.124,341.417" stroke="#9a9ea6"/><polyline fill="none" points="397.423,211.283 397.423,341.417" stroke="#9a9ea6"/><polyline fill="none" points="401.985,341.417 401.985,344.167" stroke="#9a9ea6"/><polyline fill="none" points="408.617,341.417 408.617,344.167" stroke="#9a9ea6"/><polyline fill="none" points="414.549,341.417 414.549,346.417" stroke="#9a9ea6"/><polyline fill="none" points="453.574,341.417 453.574,344.167" stroke="#9a9ea6"/><polyline fill="none" points="476.403,341.417 476.403,344.167" stroke="#9a9ea6"/><polyline fill="none" points="492.6,341.417 492.6,344.167" stroke="#9a9ea6"/><polyline fill="none" points="505.163,341.417 505.163,344.167" stroke="#9a9ea6"/><polyline fill="none" points="515.429,341.417 515.429,344.167" stroke="#9a9ea6"/><polyline fill="none" points="524.108,341.417 524.108,344.167" stroke="#9a9ea6"/><polyline fill="none" points="531.626,341.417 531.626,344.167" stroke="#9a9ea6"/><polyline fill="none" points="538.257,341.417 538.257,344.167" stroke="#9a9ea6"/><polyline fill="none" points="544.189,341.417 544.189,346.417" stroke="#9a9ea6"/><polyline fill="none" points="583.215,341.417 583.215,344.167" stroke="#9a9ea6"/><polyline fill="none" points="606.044,341.417 606.044,344.167" stroke="#9a9ea6"/><polyline fill="none" points="622.241,341.417 622.241,344.167" stroke="#9a9ea6"/><polyline fill="none" points="634.804,341.417 634.804,344.167" stroke="#9a9ea6"/><polyline fill="none" points="645.069,341.417 645.069,344.167" stroke="#9a9ea6"/><polyline fill="none" points="653.748,341.417 653.748,344.167" stroke="#9a9ea6"/><polyline fill="none" points="661.266,341.417 661.266,344.167" stroke="#9a9ea6"/><polyline fill="none" points="667.898,341.417 667.898,344.167" stroke="#9a9ea6"/><polyline fill="none" points="673.83,341.417 673.83,346.417" stroke="#9a9ea6"/><polyline fill="none" points="712.856,341.417 712.856,344.167" stroke="#9a9ea6"/><polyline fill="none" points="392.423,328.403 397.423,328.403" stroke="#9a9ea6"/><polyline fill="none" points="392.423,302.377 397.423,302.377" stroke="#9a9ea6"/><polyline fill="none" points="392.423,276.35 397.423,276.35" stroke="#9a9ea6"/><polyline fill="none" points="392.423,250.323 397.423,250.323" stroke="#9a9ea6"/><polyline fill="none" points="392.423,224.297 397.423,224.297" stroke="#9a9ea6"/><path d="M397.423,193.108 L722.124,193.108 L722.124,211.283 L397.423,211.283 Z" fill="#22262d"/><path fill="none" d="M397.423,193.108 L722.124,193.108 L722.124,211.283 L397.423,211.283 Z" stroke="#30363d"/><text x="559.774" y="202.196" font-family="sans-serif" font-size="11" text-anchor="middle" dominant-baseline="central" fill="#9198a1">text and fonts · 20</text><polyline fill="none" points="751.25,211.283 751.25,341.417" stroke="#30363d"/><polyline fill="none" points="880.891,211.283 880.891,341.417" stroke="#30363d"/><polyline fill="none" points="1010.531,211.283 1010.531,341.417" stroke="#30363d"/><polyline fill="none" points="734.124,341.417 1058.826,341.417" stroke="#9a9ea6"/><polyline fill="none" points="734.124,211.283 734.124,341.417" stroke="#9a9ea6"/><polyline fill="none" points="738.687,341.417 738.687,344.167" stroke="#9a9ea6"/><polyline fill="none" points="745.318,341.417 745.318,344.167" stroke="#9a9ea6"/><polyline fill="none" points="751.25,341.417 751.25,346.417" stroke="#9a9ea6"/><polyline fill="none" points="790.276,341.417 790.276,344.167" stroke="#9a9ea6"/><polyline fill="none" points="813.105,341.417 813.105,344.167" stroke="#9a9ea6"/><polyline fill="none" points="829.302,341.417 829.302,344.167" stroke="#9a9ea6"/><polyline fill="none" points="841.865,341.417 841.865,344.167" stroke="#9a9ea6"/><polyline fill="none" points="852.13,341.417 852.13,344.167" stroke="#9a9ea6"/><polyline fill="none" points="860.809,341.417 860.809,344.167" stroke="#9a9ea6"/><polyline fill="none" points="868.327,341.417 868.327,344.167" stroke="#9a9ea6"/><polyline fill="none" points="874.959,341.417 874.959,344.167" stroke="#9a9ea6"/><polyline fill="none" points="880.891,341.417 880.891,346.417" stroke="#9a9ea6"/><polyline fill="none" points="919.917,341.417 919.917,344.167" stroke="#9a9ea6"/><polyline fill="none" points="942.745,341.417 942.745,344.167" stroke="#9a9ea6"/><polyline fill="none" points="958.942,341.417 958.942,344.167" stroke="#9a9ea6"/><polyline fill="none" points="971.506,341.417 971.506,344.167" stroke="#9a9ea6"/><polyline fill="none" points="981.771,341.417 981.771,344.167" stroke="#9a9ea6"/><polyline fill="none" points="990.45,341.417 990.45,344.167" stroke="#9a9ea6"/><polyline fill="none" points="997.968,341.417 997.968,344.167" stroke="#9a9ea6"/><polyline fill="none" points="1004.599,341.417 1004.599,344.167" stroke="#9a9ea6"/><polyline fill="none" points="1010.531,341.417 1010.531,346.417" stroke="#9a9ea6"/><polyline fill="none" points="1049.557,341.417 1049.557,344.167" stroke="#9a9ea6"/><polyline fill="none" points="729.124,328.403 734.124,328.403" stroke="#9a9ea6"/><polyline fill="none" points="729.124,302.377 734.124,302.377" stroke="#9a9ea6"/><polyline fill="none" points="729.124,276.35 734.124,276.35" stroke="#9a9ea6"/><polyline fill="none" points="729.124,250.323 734.124,250.323" stroke="#9a9ea6"/><polyline fill="none" points="729.124,224.297 734.124,224.297" stroke="#9a9ea6"/><path d="M734.124,193.108 L1058.826,193.108 L1058.826,211.283 L734.124,211.283 Z" fill="#22262d"/><path fill="none" d="M734.124,193.108 L1058.826,193.108 L1058.826,211.283 L734.124,211.283 Z" stroke="#30363d"/><text x="896.475" y="202.196" font-family="sans-serif" font-size="11" text-anchor="middle" dominant-baseline="central" fill="#9198a1">images · 4</text><polyline fill="none" points="77.847,371.592 77.847,501.725" stroke="#30363d"/><polyline fill="none" points="207.488,371.592 207.488,501.725" stroke="#30363d"/><polyline fill="none" points="337.128,371.592 337.128,501.725" stroke="#30363d"/><polyline fill="none" points="60.721,501.725 385.423,501.725" stroke="#9a9ea6"/><polyline fill="none" points="60.721,371.592 60.721,501.725" stroke="#9a9ea6"/><polyline fill="none" points="65.283,501.725 65.283,504.475" stroke="#9a9ea6"/><polyline fill="none" points="71.915,501.725 71.915,504.475" stroke="#9a9ea6"/><polyline fill="none" points="77.847,501.725 77.847,506.725" stroke="#9a9ea6"/><text x="77.847" y="510.725" font-family="sans-serif" font-size="11" text-anchor="middle" dominant-baseline="hanging" fill="#6e7681">0.1×</text><polyline fill="none" points="116.873,501.725 116.873,504.475" stroke="#9a9ea6"/><polyline fill="none" points="139.701,501.725 139.701,504.475" stroke="#9a9ea6"/><polyline fill="none" points="155.898,501.725 155.898,504.475" stroke="#9a9ea6"/><polyline fill="none" points="168.462,501.725 168.462,504.475" stroke="#9a9ea6"/><polyline fill="none" points="178.727,501.725 178.727,504.475" stroke="#9a9ea6"/><polyline fill="none" points="187.406,501.725 187.406,504.475" stroke="#9a9ea6"/><polyline fill="none" points="194.924,501.725 194.924,504.475" stroke="#9a9ea6"/><polyline fill="none" points="201.555,501.725 201.555,504.475" stroke="#9a9ea6"/><polyline fill="none" points="207.488,501.725 207.488,506.725" stroke="#9a9ea6"/><text x="207.488" y="510.725" font-family="sans-serif" font-size="11" text-anchor="middle" dominant-baseline="hanging" fill="#6e7681">1×</text><polyline fill="none" points="246.513,501.725 246.513,504.475" stroke="#9a9ea6"/><polyline fill="none" points="269.342,501.725 269.342,504.475" stroke="#9a9ea6"/><polyline fill="none" points="285.539,501.725 285.539,504.475" stroke="#9a9ea6"/><polyline fill="none" points="298.102,501.725 298.102,504.475" stroke="#9a9ea6"/><polyline fill="none" points="308.368,501.725 308.368,504.475" stroke="#9a9ea6"/><polyline fill="none" points="317.047,501.725 317.047,504.475" stroke="#9a9ea6"/><polyline fill="none" points="324.565,501.725 324.565,504.475" stroke="#9a9ea6"/><polyline fill="none" points="331.196,501.725 331.196,504.475" stroke="#9a9ea6"/><polyline fill="none" points="337.128,501.725 337.128,506.725" stroke="#9a9ea6"/><text x="337.128" y="510.725" font-family="sans-serif" font-size="11" text-anchor="middle" dominant-baseline="hanging" fill="#6e7681">10×</text><polyline fill="none" points="376.154,501.725 376.154,504.475" stroke="#9a9ea6"/><polyline fill="none" points="55.721,488.712 60.721,488.712" stroke="#9a9ea6"/><text x="51.721" y="488.712" font-family="sans-serif" font-size="11" text-anchor="end" dominant-baseline="central" fill="#6e7681">pdf.js</text><polyline fill="none" points="55.721,462.685 60.721,462.685" stroke="#9a9ea6"/><text x="51.721" y="462.685" font-family="sans-serif" font-size="11" text-anchor="end" dominant-baseline="central" fill="#6e7681">hayro</text><polyline fill="none" points="55.721,436.658 60.721,436.658" stroke="#9a9ea6"/><text x="51.721" y="436.658" font-family="sans-serif" font-size="11" text-anchor="end" dominant-baseline="central" fill="#6e7681">PDFium</text><polyline fill="none" points="55.721,410.632 60.721,410.632" stroke="#9a9ea6"/><text x="51.721" y="410.632" font-family="sans-serif" font-size="11" text-anchor="end" dominant-baseline="central" fill="#6e7681">cera</text><polyline fill="none" points="55.721,384.605 60.721,384.605" stroke="#9a9ea6"/><text x="51.721" y="384.605" font-family="sans-serif" font-size="11" text-anchor="end" dominant-baseline="central" fill="#6e7681">MuPDF</text><path d="M60.721,353.417 L385.423,353.417 L385.423,371.592 L60.721,371.592 Z" fill="#22262d"/><path fill="none" d="M60.721,353.417 L385.423,353.417 L385.423,371.592 L60.721,371.592 Z" stroke="#30363d"/><text x="223.072" y="362.504" font-family="sans-serif" font-size="11" text-anchor="middle" dominant-baseline="central" fill="#9198a1">scans · 3</text><polyline fill="none" points="414.549,371.592 414.549,501.725" stroke="#30363d"/><polyline fill="none" points="544.189,371.592 544.189,501.725" stroke="#30363d"/><polyline fill="none" points="673.83,371.592 673.83,501.725" stroke="#30363d"/><polyline fill="none" points="397.423,501.725 722.124,501.725" stroke="#9a9ea6"/><polyline fill="none" points="397.423,371.592 397.423,501.725" stroke="#9a9ea6"/><polyline fill="none" points="401.985,501.725 401.985,504.475" stroke="#9a9ea6"/><polyline fill="none" points="408.617,501.725 408.617,504.475" stroke="#9a9ea6"/><polyline fill="none" points="414.549,501.725 414.549,506.725" stroke="#9a9ea6"/><text x="414.549" y="510.725" font-family="sans-serif" font-size="11" text-anchor="middle" dominant-baseline="hanging" fill="#6e7681">0.1×</text><polyline fill="none" points="453.574,501.725 453.574,504.475" stroke="#9a9ea6"/><polyline fill="none" points="476.403,501.725 476.403,504.475" stroke="#9a9ea6"/><polyline fill="none" points="492.6,501.725 492.6,504.475" stroke="#9a9ea6"/><polyline fill="none" points="505.163,501.725 505.163,504.475" stroke="#9a9ea6"/><polyline fill="none" points="515.429,501.725 515.429,504.475" stroke="#9a9ea6"/><polyline fill="none" points="524.108,501.725 524.108,504.475" stroke="#9a9ea6"/><polyline fill="none" points="531.626,501.725 531.626,504.475" stroke="#9a9ea6"/><polyline fill="none" points="538.257,501.725 538.257,504.475" stroke="#9a9ea6"/><polyline fill="none" points="544.189,501.725 544.189,506.725" stroke="#9a9ea6"/><text x="544.189" y="510.725" font-family="sans-serif" font-size="11" text-anchor="middle" dominant-baseline="hanging" fill="#6e7681">1×</text><polyline fill="none" points="583.215,501.725 583.215,504.475" stroke="#9a9ea6"/><polyline fill="none" points="606.044,501.725 606.044,504.475" stroke="#9a9ea6"/><polyline fill="none" points="622.241,501.725 622.241,504.475" stroke="#9a9ea6"/><polyline fill="none" points="634.804,501.725 634.804,504.475" stroke="#9a9ea6"/><polyline fill="none" points="645.069,501.725 645.069,504.475" stroke="#9a9ea6"/><polyline fill="none" points="653.748,501.725 653.748,504.475" stroke="#9a9ea6"/><polyline fill="none" points="661.266,501.725 661.266,504.475" stroke="#9a9ea6"/><polyline fill="none" points="667.898,501.725 667.898,504.475" stroke="#9a9ea6"/><polyline fill="none" points="673.83,501.725 673.83,506.725" stroke="#9a9ea6"/><text x="673.83" y="510.725" font-family="sans-serif" font-size="11" text-anchor="middle" dominant-baseline="hanging" fill="#6e7681">10×</text><polyline fill="none" points="712.856,501.725 712.856,504.475" stroke="#9a9ea6"/><polyline fill="none" points="392.423,488.712 397.423,488.712" stroke="#9a9ea6"/><polyline fill="none" points="392.423,462.685 397.423,462.685" stroke="#9a9ea6"/><polyline fill="none" points="392.423,436.658 397.423,436.658" stroke="#9a9ea6"/><polyline fill="none" points="392.423,410.632 397.423,410.632" stroke="#9a9ea6"/><polyline fill="none" points="392.423,384.605 397.423,384.605" stroke="#9a9ea6"/><path d="M397.423,353.417 L722.124,353.417 L722.124,371.592 L397.423,371.592 Z" fill="#22262d"/><path fill="none" d="M397.423,353.417 L722.124,353.417 L722.124,371.592 L397.423,371.592 Z" stroke="#30363d"/><text x="559.774" y="362.504" font-family="sans-serif" font-size="11" text-anchor="middle" dominant-baseline="central" fill="#9198a1">shadings · 11</text><polyline fill="none" points="751.25,371.592 751.25,501.725" stroke="#30363d"/><polyline fill="none" points="880.891,371.592 880.891,501.725" stroke="#30363d"/><polyline fill="none" points="1010.531,371.592 1010.531,501.725" stroke="#30363d"/><polyline fill="none" points="734.124,501.725 1058.826,501.725" stroke="#9a9ea6"/><polyline fill="none" points="734.124,371.592 734.124,501.725" stroke="#9a9ea6"/><polyline fill="none" points="738.687,501.725 738.687,504.475" stroke="#9a9ea6"/><polyline fill="none" points="745.318,501.725 745.318,504.475" stroke="#9a9ea6"/><polyline fill="none" points="751.25,501.725 751.25,506.725" stroke="#9a9ea6"/><text x="751.25" y="510.725" font-family="sans-serif" font-size="11" text-anchor="middle" dominant-baseline="hanging" fill="#6e7681">0.1×</text><polyline fill="none" points="790.276,501.725 790.276,504.475" stroke="#9a9ea6"/><polyline fill="none" points="813.105,501.725 813.105,504.475" stroke="#9a9ea6"/><polyline fill="none" points="829.302,501.725 829.302,504.475" stroke="#9a9ea6"/><polyline fill="none" points="841.865,501.725 841.865,504.475" stroke="#9a9ea6"/><polyline fill="none" points="852.13,501.725 852.13,504.475" stroke="#9a9ea6"/><polyline fill="none" points="860.809,501.725 860.809,504.475" stroke="#9a9ea6"/><polyline fill="none" points="868.327,501.725 868.327,504.475" stroke="#9a9ea6"/><polyline fill="none" points="874.959,501.725 874.959,504.475" stroke="#9a9ea6"/><polyline fill="none" points="880.891,501.725 880.891,506.725" stroke="#9a9ea6"/><text x="880.891" y="510.725" font-family="sans-serif" font-size="11" text-anchor="middle" dominant-baseline="hanging" fill="#6e7681">1×</text><polyline fill="none" points="919.917,501.725 919.917,504.475" stroke="#9a9ea6"/><polyline fill="none" points="942.745,501.725 942.745,504.475" stroke="#9a9ea6"/><polyline fill="none" points="958.942,501.725 958.942,504.475" stroke="#9a9ea6"/><polyline fill="none" points="971.506,501.725 971.506,504.475" stroke="#9a9ea6"/><polyline fill="none" points="981.771,501.725 981.771,504.475" stroke="#9a9ea6"/><polyline fill="none" points="990.45,501.725 990.45,504.475" stroke="#9a9ea6"/><polyline fill="none" points="997.968,501.725 997.968,504.475" stroke="#9a9ea6"/><polyline fill="none" points="1004.599,501.725 1004.599,504.475" stroke="#9a9ea6"/><polyline fill="none" points="1010.531,501.725 1010.531,506.725" stroke="#9a9ea6"/><text x="1010.531" y="510.725" font-family="sans-serif" font-size="11" text-anchor="middle" dominant-baseline="hanging" fill="#6e7681">10×</text><polyline fill="none" points="1049.557,501.725 1049.557,504.475" stroke="#9a9ea6"/><polyline fill="none" points="729.124,488.712 734.124,488.712" stroke="#9a9ea6"/><polyline fill="none" points="729.124,462.685 734.124,462.685" stroke="#9a9ea6"/><polyline fill="none" points="729.124,436.658 734.124,436.658" stroke="#9a9ea6"/><polyline fill="none" points="729.124,410.632 734.124,410.632" stroke="#9a9ea6"/><polyline fill="none" points="729.124,384.605 734.124,384.605" stroke="#9a9ea6"/><path d="M734.124,353.417 L1058.826,353.417 L1058.826,371.592 L734.124,371.592 Z" fill="#22262d"/><path fill="none" d="M734.124,353.417 L1058.826,353.417 L1058.826,371.592 L734.124,371.592 Z" stroke="#30363d"/><text x="896.475" y="362.504" font-family="sans-serif" font-size="11" text-anchor="middle" dominant-baseline="central" fill="#9198a1">transparency · 7</text><text x="559.773" y="23.488" font-family="sans-serif" font-size="16" text-anchor="middle" fill="#f0f6fc">One core, per page</text><text x="559.773" y="535.516" font-family="sans-serif" font-size="12" text-anchor="middle" fill="#9198a1">time relative to MuPDF (log scale; left is faster)</text><g clip-path="url(#c1)"><polyline fill="none" points="207.488,50.975 207.488,181.108" stroke="#6e7681" stroke-dasharray="4 3"/><use href="#m2" x="207.488" y="63.988"/><use href="#m2" x="214.216" y="116.042"/><use href="#m2" x="223.31" y="142.068"/><use href="#m2" x="281.503" y="168.095"/><use href="#m3" x="185.524" y="90.015"/><text x="216.806" y="63.988" font-family="sans-serif" font-size="11" dominant-baseline="central" fill="#9198a1">1.00×</text><text x="194.843" y="90.015" font-family="sans-serif" font-size="11" dominant-baseline="central" fill="#9198a1">0.68×</text><text x="223.534" y="116.042" font-family="sans-serif" font-size="11" dominant-baseline="central" fill="#9198a1">1.13×</text><text x="232.629" y="142.068" font-family="sans-serif" font-size="11" dominant-baseline="central" fill="#9198a1">1.32×</text><text x="290.822" y="168.095" font-family="sans-serif" font-size="11" dominant-baseline="central" fill="#9198a1">3.72×</text></g><g clip-path="url(#c4)"><polyline fill="none" points="544.189,50.975 544.189,181.108" stroke="#6e7681" stroke-dasharray="4 3"/><use href="#m2" x="544.189" y="63.988"/><use href="#m2" x="472.011" y="116.042"/><use href="#m2" x="428.509" y="142.068"/><use href="#m2" x="467.141" y="168.095"/><use href="#m3" x="420.251" y="90.015"/><text x="553.508" y="63.988" font-family="sans-serif" font-size="11" dominant-baseline="central" fill="#9198a1">1.00×</text><text x="429.57" y="90.015" font-family="sans-serif" font-size="11" dominant-baseline="central" fill="#9198a1">0.11×</text><text x="481.33" y="116.042" font-family="sans-serif" font-size="11" dominant-baseline="central" fill="#9198a1">0.28×</text><text x="437.828" y="142.068" font-family="sans-serif" font-size="11" dominant-baseline="central" fill="#9198a1">0.13×</text><text x="476.459" y="168.095" font-family="sans-serif" font-size="11" dominant-baseline="central" fill="#9198a1">0.25×</text></g><g clip-path="url(#c5)"><polyline fill="none" points="880.891,50.975 880.891,181.108" stroke="#6e7681" stroke-dasharray="4 3"/><use href="#m2" x="880.891" y="63.988"/><use href="#m2" x="862.23" y="116.042"/><use href="#m2" x="833.965" y="142.068"/><use href="#m2" x="941.022" y="168.095"/><use href="#m3" x="838.907" y="90.015"/><text x="890.21" y="63.988" font-family="sans-serif" font-size="11" dominant-baseline="central" fill="#9198a1">1.00×</text><text x="848.226" y="90.015" font-family="sans-serif" font-size="11" dominant-baseline="central" fill="#9198a1">0.47×</text><text x="871.549" y="116.042" font-family="sans-serif" font-size="11" dominant-baseline="central" fill="#9198a1">0.72×</text><text x="843.284" y="142.068" font-family="sans-serif" font-size="11" dominant-baseline="central" fill="#9198a1">0.43×</text><text x="950.341" y="168.095" font-family="sans-serif" font-size="11" dominant-baseline="central" fill="#9198a1">2.91×</text></g><g clip-path="url(#c6)"><polyline fill="none" points="207.488,211.283 207.488,341.417" stroke="#6e7681" stroke-dasharray="4 3"/><use href="#m2" x="207.488" y="224.297"/><use href="#m2" x="220.03" y="276.35"/><use href="#m2" x="244.961" y="302.377"/><use href="#m2" x="309" y="328.403"/><use href="#m3" x="196.563" y="250.323"/><text x="216.806" y="224.297" font-family="sans-serif" font-size="11" dominant-baseline="central" fill="#9198a1">1.00×</text><text x="205.882" y="250.323" font-family="sans-serif" font-size="11" dominant-baseline="central" fill="#9198a1">0.82×</text><text x="229.349" y="276.35" font-family="sans-serif" font-size="11" dominant-baseline="central" fill="#9198a1">1.25×</text><text x="254.279" y="302.377" font-family="sans-serif" font-size="11" dominant-baseline="central" fill="#9198a1">1.95×</text><text x="318.319" y="328.403" font-family="sans-serif" font-size="11" dominant-baseline="central" fill="#9198a1">6.07×</text></g><g clip-path="url(#c7)"><polyline fill="none" points="544.189,211.283 544.189,341.417" stroke="#6e7681" stroke-dasharray="4 3"/><use href="#m2" x="544.189" y="224.297"/><use href="#m2" x="558.335" y="276.35"/><use href="#m2" x="570.302" y="302.377"/><use href="#m2" x="643.674" y="328.403"/><use href="#m3" x="537.905" y="250.323"/><text x="553.508" y="224.297" font-family="sans-serif" font-size="11" dominant-baseline="central" fill="#9198a1">1.00×</text><text x="547.224" y="250.323" font-family="sans-serif" font-size="11" dominant-baseline="central" fill="#9198a1">0.89×</text><text x="567.653" y="276.35" font-family="sans-serif" font-size="11" dominant-baseline="central" fill="#9198a1">1.29×</text><text x="579.62" y="302.377" font-family="sans-serif" font-size="11" dominant-baseline="central" fill="#9198a1">1.59×</text><text x="652.993" y="328.403" font-family="sans-serif" font-size="11" dominant-baseline="central" fill="#9198a1">5.85×</text></g><g clip-path="url(#c8)"><polyline fill="none" points="880.891,211.283 880.891,341.417" stroke="#6e7681" stroke-dasharray="4 3"/><use href="#m2" x="880.891" y="224.297"/><use href="#m2" x="908.713" y="276.35"/><use href="#m2" x="896.681" y="302.377"/><use href="#m2" x="1007.237" y="328.403"/><use href="#m3" x="848.891" y="250.323"/><text x="890.21" y="224.297" font-family="sans-serif" font-size="11" dominant-baseline="central" fill="#9198a1">1.00×</text><text x="858.21" y="250.323" font-family="sans-serif" font-size="11" dominant-baseline="central" fill="#9198a1">0.57×</text><text x="918.031" y="276.35" font-family="sans-serif" font-size="11" dominant-baseline="central" fill="#9198a1">1.64×</text><text x="906" y="302.377" font-family="sans-serif" font-size="11" dominant-baseline="central" fill="#9198a1">1.32×</text><text x="1016.556" y="328.403" font-family="sans-serif" font-size="11" dominant-baseline="central" fill="#9198a1">9.43×</text></g><g clip-path="url(#c9)"><polyline fill="none" points="207.488,371.592 207.488,501.725" stroke="#6e7681" stroke-dasharray="4 3"/><use href="#m2" x="207.488" y="384.605"/><use href="#m2" x="234.621" y="436.658"/><use href="#m2" x="217.216" y="462.685"/><use href="#m2" x="281.985" y="488.712"/><use href="#m3" x="227.615" y="410.632"/><text x="216.806" y="384.605" font-family="sans-serif" font-size="11" dominant-baseline="central" fill="#9198a1">1.00×</text><text x="236.934" y="410.632" font-family="sans-serif" font-size="11" dominant-baseline="central" fill="#9198a1">1.43×</text><text x="243.939" y="436.658" font-family="sans-serif" font-size="11" dominant-baseline="central" fill="#9198a1">1.62×</text><text x="226.535" y="462.685" font-family="sans-serif" font-size="11" dominant-baseline="central" fill="#9198a1">1.19×</text><text x="291.304" y="488.712" font-family="sans-serif" font-size="11" dominant-baseline="central" fill="#9198a1">3.76×</text></g><g clip-path="url(#c10)"><polyline fill="none" points="544.189,371.592 544.189,501.725" stroke="#6e7681" stroke-dasharray="4 3"/><use href="#m2" x="544.189" y="384.605"/><use href="#m2" x="574.419" y="436.658"/><use href="#m2" x="571.171" y="462.685"/><use href="#m2" x="541.28" y="488.712"/><use href="#m3" x="503.257" y="410.632"/><text x="553.508" y="384.605" font-family="sans-serif" font-size="11" dominant-baseline="central" fill="#9198a1">1.00×</text><text x="512.576" y="410.632" font-family="sans-serif" font-size="11" dominant-baseline="central" fill="#9198a1">0.48×</text><text x="583.738" y="436.658" font-family="sans-serif" font-size="11" dominant-baseline="central" fill="#9198a1">1.71×</text><text x="580.489" y="462.685" font-family="sans-serif" font-size="11" dominant-baseline="central" fill="#9198a1">1.61×</text><text x="550.598" y="488.712" font-family="sans-serif" font-size="11" dominant-baseline="central" fill="#9198a1">0.95×</text></g><g clip-path="url(#c11)"><polyline fill="none" points="880.891,371.592 880.891,501.725" stroke="#6e7681" stroke-dasharray="4 3"/><use href="#m2" x="880.891" y="384.605"/><use href="#m2" x="857.951" y="436.658"/><use href="#m2" x="841.239" y="462.685"/><use href="#m2" x="921.695" y="488.712"/><use href="#m3" x="862.426" y="410.632"/><text x="890.21" y="384.605" font-family="sans-serif" font-size="11" dominant-baseline="central" fill="#9198a1">1.00×</text><text x="871.745" y="410.632" font-family="sans-serif" font-size="11" dominant-baseline="central" fill="#9198a1">0.72×</text><text x="867.269" y="436.658" font-family="sans-serif" font-size="11" dominant-baseline="central" fill="#9198a1">0.67×</text><text x="850.558" y="462.685" font-family="sans-serif" font-size="11" dominant-baseline="central" fill="#9198a1">0.49×</text><text x="931.014" y="488.712" font-family="sans-serif" font-size="11" dominant-baseline="central" fill="#9198a1">2.06×</text></g></svg>