<?xml version="1.0" encoding="UTF-8"?><svg xmlns="http://www.w3.org/2000/svg" width="1080" height="550" viewBox="0 0 1080 550" role="img" aria-labelledby="figure-title"><title id="figure-title">One core, per page</title><defs><clipPath id="c1"><path d="M60.721,50.975 L385.423,50.975 L385.423,181.108 L60.721,181.108 Z"/></clipPath><path id="m2" d="M4.5,0 C4.5,2.485 2.485,4.5 0,4.5 C-2.485,4.5 -4.5,2.485 -4.5,0 C-4.5,-2.485 -2.485,-4.5 0,-4.5 C2.485,-4.5 4.5,-2.485 4.5,0 Z" fill="#6e7681"/><path id="m3" d="M4.5,0 C4.5,2.485 2.485,4.5 0,4.5 C-2.485,4.5 -4.5,2.485 -4.5,0 C-4.5,-2.485 -2.485,-4.5 0,-4.5 C2.485,-4.5 4.5,-2.485 4.5,0 Z" fill="#4493f8"/><clipPath id="c4"><path d="M397.423,50.975 L722.124,50.975 L722.124,181.108 L397.423,181.108 Z"/></clipPath><clipPath id="c5"><path d="M734.124,50.975 L1058.826,50.975 L1058.826,181.108 L734.124,181.108 Z"/></clipPath><clipPath id="c6"><path d="M60.721,211.283 L385.423,211.283 L385.423,341.417 L60.721,341.417 Z"/></clipPath><clipPath id="c7"><path d="M397.423,211.283 L722.124,211.283 L722.124,341.417 L397.423,341.417 Z"/></clipPath><clipPath id="c8"><path d="M734.124,211.283 L1058.826,211.283 L1058.826,341.417 L734.124,341.417 Z"/></clipPath><clipPath id="c9"><path d="M60.721,371.592 L385.423,371.592 L385.423,501.725 L60.721,501.725 Z"/></clipPath><clipPath id="c10"><path d="M397.423,371.592 L722.124,371.592 L722.124,501.725 L397.423,501.725 Z"/></clipPath><clipPath id="c11"><path d="M734.124,371.592 L1058.826,371.592 L1058.826,501.725 L734.124,501.725 Z"/></clipPath></defs><path d="M0,0 L1080,0 L1080,550 L0,550 Z" fill="#0d1117"/><polyline fill="none" points="76.403,50.975 76.403,181.108" stroke="#30363d"/><polyline fill="none" points="207.691,50.975 207.691,181.108" stroke="#30363d"/><polyline fill="none" points="338.98,50.975 338.98,181.108" stroke="#30363d"/><polyline fill="none" points="60.721,181.108 385.423,181.108" stroke="#9a9ea6"/><polyline fill="none" points="60.721,50.975 60.721,181.108" stroke="#9a9ea6"/><polyline fill="none" points="63.68,181.108 63.68,183.858" stroke="#9a9ea6"/><polyline fill="none" points="70.396,181.108 70.396,183.858" stroke="#9a9ea6"/><polyline fill="none" points="76.403,181.108 76.403,186.108" stroke="#9a9ea6"/><polyline fill="none" points="115.925,181.108 115.925,183.858" stroke="#9a9ea6"/><polyline fill="none" points="139.044,181.108 139.044,183.858" stroke="#9a9ea6"/><polyline fill="none" points="155.447,181.108 155.447,183.858" stroke="#9a9ea6"/><polyline fill="none" points="168.17,181.108 168.17,183.858" stroke="#9a9ea6"/><polyline fill="none" points="178.565,181.108 178.565,183.858" stroke="#9a9ea6"/><polyline fill="none" points="187.355,181.108 187.355,183.858" stroke="#9a9ea6"/><polyline fill="none" points="194.968,181.108 194.968,183.858" stroke="#9a9ea6"/><polyline fill="none" points="201.684,181.108 201.684,183.858" stroke="#9a9ea6"/><polyline fill="none" points="207.691,181.108 207.691,186.108" stroke="#9a9ea6"/><polyline fill="none" points="247.213,181.108 247.213,183.858" stroke="#9a9ea6"/><polyline fill="none" points="270.332,181.108 270.332,183.858" stroke="#9a9ea6"/><polyline fill="none" points="286.735,181.108 286.735,183.858" stroke="#9a9ea6"/><polyline fill="none" points="299.458,181.108 299.458,183.858" stroke="#9a9ea6"/><polyline fill="none" points="309.853,181.108 309.853,183.858" stroke="#9a9ea6"/><polyline fill="none" points="318.643,181.108 318.643,183.858" stroke="#9a9ea6"/><polyline fill="none" points="326.256,181.108 326.256,183.858" stroke="#9a9ea6"/><polyline fill="none" points="332.972,181.108 332.972,183.858" stroke="#9a9ea6"/><polyline fill="none" points="338.98,181.108 338.98,186.108" stroke="#9a9ea6"/><polyline fill="none" points="378.501,181.108 378.501,183.858" stroke="#9a9ea6"/><polyline fill="none" points="55.721,168.095 60.721,168.095" stroke="#9a9ea6"/><text x="51.721" y="168.095" font-family="sans-serif" font-size="11" text-anchor="end" dominant-baseline="central" fill="#6e7681">pdf.js</text><polyline fill="none" points="55.721,142.068 60.721,142.068" stroke="#9a9ea6"/><text x="51.721" y="142.068" font-family="sans-serif" font-size="11" text-anchor="end" dominant-baseline="central" fill="#6e7681">hayro</text><polyline fill="none" points="55.721,116.042 60.721,116.042" stroke="#9a9ea6"/><text x="51.721" y="116.042" font-family="sans-serif" font-size="11" text-anchor="end" dominant-baseline="central" fill="#6e7681">PDFium</text><polyline fill="none" points="55.721,90.015 60.721,90.015" stroke="#9a9ea6"/><text x="51.721" y="90.015" font-family="sans-serif" font-size="11" text-anchor="end" dominant-baseline="central" fill="#6e7681">cera</text><polyline fill="none" points="55.721,63.988 60.721,63.988" stroke="#9a9ea6"/><text x="51.721" y="63.988" font-family="sans-serif" font-size="11" text-anchor="end" dominant-baseline="central" fill="#6e7681">MuPDF</text><path d="M60.721,32.8 L385.423,32.8 L385.423,50.975 L60.721,50.975 Z" fill="#22262d"/><path fill="none" d="M60.721,32.8 L385.423,32.8 L385.423,50.975 L60.721,50.975 Z" stroke="#30363d"/><text x="223.072" y="41.887" font-family="sans-serif" font-size="11" text-anchor="middle" dominant-baseline="central" fill="#9198a1">all pages · 113</text><polyline fill="none" points="413.105,50.975 413.105,181.108" stroke="#30363d"/><polyline fill="none" points="544.393,50.975 544.393,181.108" stroke="#30363d"/><polyline fill="none" points="675.681,50.975 675.681,181.108" stroke="#30363d"/><polyline fill="none" points="397.423,181.108 722.124,181.108" stroke="#9a9ea6"/><polyline fill="none" points="397.423,50.975 397.423,181.108" stroke="#9a9ea6"/><polyline fill="none" points="400.382,181.108 400.382,183.858" stroke="#9a9ea6"/><polyline fill="none" points="407.097,181.108 407.097,183.858" stroke="#9a9ea6"/><polyline fill="none" points="413.105,181.108 413.105,186.108" stroke="#9a9ea6"/><polyline fill="none" points="452.626,181.108 452.626,183.858" stroke="#9a9ea6"/><polyline fill="none" points="475.745,181.108 475.745,183.858" stroke="#9a9ea6"/><polyline fill="none" points="492.148,181.108 492.148,183.858" stroke="#9a9ea6"/><polyline fill="none" points="504.871,181.108 504.871,183.858" stroke="#9a9ea6"/><polyline fill="none" points="515.267,181.108 515.267,183.858" stroke="#9a9ea6"/><polyline fill="none" points="524.056,181.108 524.056,183.858" stroke="#9a9ea6"/><polyline fill="none" points="531.67,181.108 531.67,183.858" stroke="#9a9ea6"/><polyline fill="none" points="538.386,181.108 538.386,183.858" stroke="#9a9ea6"/><polyline fill="none" points="544.393,181.108 544.393,186.108" stroke="#9a9ea6"/><polyline fill="none" points="583.915,181.108 583.915,183.858" stroke="#9a9ea6"/><polyline fill="none" points="607.033,181.108 607.033,183.858" stroke="#9a9ea6"/><polyline fill="none" points="623.436,181.108 623.436,183.858" stroke="#9a9ea6"/><polyline fill="none" points="636.16,181.108 636.16,183.858" stroke="#9a9ea6"/><polyline fill="none" points="646.555,181.108 646.555,183.858" stroke="#9a9ea6"/><polyline fill="none" points="655.344,181.108 655.344,183.858" stroke="#9a9ea6"/><polyline fill="none" points="662.958,181.108 662.958,183.858" stroke="#9a9ea6"/><polyline fill="none" points="669.674,181.108 669.674,183.858" stroke="#9a9ea6"/><polyline fill="none" points="675.681,181.108 675.681,186.108" stroke="#9a9ea6"/><polyline fill="none" points="715.203,181.108 715.203,183.858" stroke="#9a9ea6"/><polyline fill="none" points="392.423,168.095 397.423,168.095" stroke="#9a9ea6"/><polyline fill="none" points="392.423,142.068 397.423,142.068" stroke="#9a9ea6"/><polyline fill="none" points="392.423,116.042 397.423,116.042" stroke="#9a9ea6"/><polyline fill="none" points="392.423,90.015 397.423,90.015" stroke="#9a9ea6"/><polyline fill="none" points="392.423,63.988 397.423,63.988" stroke="#9a9ea6"/><path d="M397.423,32.8 L722.124,32.8 L722.124,50.975 L397.423,50.975 Z" fill="#22262d"/><path fill="none" d="M397.423,32.8 L722.124,32.8 L722.124,50.975 L397.423,50.975 Z" stroke="#30363d"/><text x="559.774" y="41.887" font-family="sans-serif" font-size="11" text-anchor="middle" dominant-baseline="central" fill="#9198a1">technical drawings · 8</text><polyline fill="none" points="749.807,50.975 749.807,181.108" stroke="#30363d"/><polyline fill="none" points="881.095,50.975 881.095,181.108" stroke="#30363d"/><polyline fill="none" points="1012.383,50.975 1012.383,181.108" stroke="#30363d"/><polyline fill="none" points="734.124,181.108 1058.826,181.108" stroke="#9a9ea6"/><polyline fill="none" points="734.124,50.975 734.124,181.108" stroke="#9a9ea6"/><polyline fill="none" points="737.083,181.108 737.083,183.858" stroke="#9a9ea6"/><polyline fill="none" points="743.799,181.108 743.799,183.858" stroke="#9a9ea6"/><polyline fill="none" points="749.807,181.108 749.807,186.108" stroke="#9a9ea6"/><polyline fill="none" points="789.328,181.108 789.328,183.858" stroke="#9a9ea6"/><polyline fill="none" points="812.447,181.108 812.447,183.858" stroke="#9a9ea6"/><polyline fill="none" points="828.85,181.108 828.85,183.858" stroke="#9a9ea6"/><polyline fill="none" points="841.573,181.108 841.573,183.858" stroke="#9a9ea6"/><polyline fill="none" points="851.969,181.108 851.969,183.858" stroke="#9a9ea6"/><polyline fill="none" points="860.758,181.108 860.758,183.858" stroke="#9a9ea6"/><polyline fill="none" points="868.372,181.108 868.372,183.858" stroke="#9a9ea6"/><polyline fill="none" points="875.087,181.108 875.087,183.858" stroke="#9a9ea6"/><polyline fill="none" points="881.095,181.108 881.095,186.108" stroke="#9a9ea6"/><polyline fill="none" points="920.616,181.108 920.616,183.858" stroke="#9a9ea6"/><polyline fill="none" points="943.735,181.108 943.735,183.858" stroke="#9a9ea6"/><polyline fill="none" points="960.138,181.108 960.138,183.858" stroke="#9a9ea6"/><polyline fill="none" points="972.861,181.108 972.861,183.858" stroke="#9a9ea6"/><polyline fill="none" points="983.257,181.108 983.257,183.858" stroke="#9a9ea6"/><polyline fill="none" points="992.046,181.108 992.046,183.858" stroke="#9a9ea6"/><polyline fill="none" points="999.66,181.108 999.66,183.858" stroke="#9a9ea6"/><polyline fill="none" points="1006.375,181.108 1006.375,183.858" stroke="#9a9ea6"/><polyline fill="none" points="1012.383,181.108 1012.383,186.108" stroke="#9a9ea6"/><polyline fill="none" points="1051.905,181.108 1051.905,183.858" stroke="#9a9ea6"/><polyline fill="none" points="729.124,168.095 734.124,168.095" stroke="#9a9ea6"/><polyline fill="none" points="729.124,142.068 734.124,142.068" stroke="#9a9ea6"/><polyline fill="none" points="729.124,116.042 734.124,116.042" stroke="#9a9ea6"/><polyline fill="none" points="729.124,90.015 734.124,90.015" stroke="#9a9ea6"/><polyline fill="none" points="729.124,63.988 734.124,63.988" stroke="#9a9ea6"/><path d="M734.124,32.8 L1058.826,32.8 L1058.826,50.975 L734.124,50.975 Z" fill="#22262d"/><path fill="none" d="M734.124,32.8 L1058.826,32.8 L1058.826,50.975 L734.124,50.975 Z" stroke="#30363d"/><text x="896.475" y="41.887" font-family="sans-serif" font-size="11" text-anchor="middle" dominant-baseline="central" fill="#9198a1">vector graphics · 2</text><polyline fill="none" points="76.403,211.283 76.403,341.417" stroke="#30363d"/><polyline fill="none" points="207.691,211.283 207.691,341.417" stroke="#30363d"/><polyline fill="none" points="338.98,211.283 338.98,341.417" stroke="#30363d"/><polyline fill="none" points="60.721,341.417 385.423,341.417" stroke="#9a9ea6"/><polyline fill="none" points="60.721,211.283 60.721,341.417" stroke="#9a9ea6"/><polyline fill="none" points="63.68,341.417 63.68,344.167" stroke="#9a9ea6"/><polyline fill="none" points="70.396,341.417 70.396,344.167" stroke="#9a9ea6"/><polyline fill="none" points="76.403,341.417 76.403,346.417" stroke="#9a9ea6"/><polyline fill="none" points="115.925,341.417 115.925,344.167" stroke="#9a9ea6"/><polyline fill="none" points="139.044,341.417 139.044,344.167" stroke="#9a9ea6"/><polyline fill="none" points="155.447,341.417 155.447,344.167" stroke="#9a9ea6"/><polyline fill="none" points="168.17,341.417 168.17,344.167" stroke="#9a9ea6"/><polyline fill="none" points="178.565,341.417 178.565,344.167" stroke="#9a9ea6"/><polyline fill="none" points="187.355,341.417 187.355,344.167" stroke="#9a9ea6"/><polyline fill="none" points="194.968,341.417 194.968,344.167" stroke="#9a9ea6"/><polyline fill="none" points="201.684,341.417 201.684,344.167" stroke="#9a9ea6"/><polyline fill="none" points="207.691,341.417 207.691,346.417" stroke="#9a9ea6"/><polyline fill="none" points="247.213,341.417 247.213,344.167" stroke="#9a9ea6"/><polyline fill="none" points="270.332,341.417 270.332,344.167" stroke="#9a9ea6"/><polyline fill="none" points="286.735,341.417 286.735,344.167" stroke="#9a9ea6"/><polyline fill="none" points="299.458,341.417 299.458,344.167" stroke="#9a9ea6"/><polyline fill="none" points="309.853,341.417 309.853,344.167" stroke="#9a9ea6"/><polyline fill="none" points="318.643,341.417 318.643,344.167" stroke="#9a9ea6"/><polyline fill="none" points="326.256,341.417 326.256,344.167" stroke="#9a9ea6"/><polyline fill="none" points="332.972,341.417 332.972,344.167" stroke="#9a9ea6"/><polyline fill="none" points="338.98,341.417 338.98,346.417" stroke="#9a9ea6"/><polyline fill="none" points="378.501,341.417 378.501,344.167" stroke="#9a9ea6"/><polyline fill="none" points="55.721,328.403 60.721,328.403" stroke="#9a9ea6"/><text x="51.721" y="328.403" font-family="sans-serif" font-size="11" text-anchor="end" dominant-baseline="central" fill="#6e7681">pdf.js</text><polyline fill="none" points="55.721,302.377 60.721,302.377" stroke="#9a9ea6"/><text x="51.721" y="302.377" font-family="sans-serif" font-size="11" text-anchor="end" dominant-baseline="central" fill="#6e7681">hayro</text><polyline fill="none" points="55.721,276.35 60.721,276.35" stroke="#9a9ea6"/><text x="51.721" y="276.35" font-family="sans-serif" font-size="11" text-anchor="end" dominant-baseline="central" fill="#6e7681">PDFium</text><polyline fill="none" points="55.721,250.323 60.721,250.323" stroke="#9a9ea6"/><text x="51.721" y="250.323" font-family="sans-serif" font-size="11" text-anchor="end" dominant-baseline="central" fill="#6e7681">cera</text><polyline fill="none" points="55.721,224.297 60.721,224.297" stroke="#9a9ea6"/><text x="51.721" y="224.297" font-family="sans-serif" font-size="11" text-anchor="end" dominant-baseline="central" fill="#6e7681">MuPDF</text><path d="M60.721,193.108 L385.423,193.108 L385.423,211.283 L60.721,211.283 Z" fill="#22262d"/><path fill="none" d="M60.721,193.108 L385.423,193.108 L385.423,211.283 L60.721,211.283 Z" stroke="#30363d"/><text x="223.072" y="202.196" font-family="sans-serif" font-size="11" text-anchor="middle" dominant-baseline="central" fill="#9198a1">papers (arXiv) · 58</text><polyline fill="none" points="413.105,211.283 413.105,341.417" stroke="#30363d"/><polyline fill="none" points="544.393,211.283 544.393,341.417" stroke="#30363d"/><polyline fill="none" points="675.681,211.283 675.681,341.417" stroke="#30363d"/><polyline fill="none" points="397.423,341.417 722.124,341.417" stroke="#9a9ea6"/><polyline fill="none" points="397.423,211.283 397.423,341.417" stroke="#9a9ea6"/><polyline fill="none" points="400.382,341.417 400.382,344.167" stroke="#9a9ea6"/><polyline fill="none" points="407.097,341.417 407.097,344.167" stroke="#9a9ea6"/><polyline fill="none" points="413.105,341.417 413.105,346.417" stroke="#9a9ea6"/><polyline fill="none" points="452.626,341.417 452.626,344.167" stroke="#9a9ea6"/><polyline fill="none" points="475.745,341.417 475.745,344.167" stroke="#9a9ea6"/><polyline fill="none" points="492.148,341.417 492.148,344.167" stroke="#9a9ea6"/><polyline fill="none" points="504.871,341.417 504.871,344.167" stroke="#9a9ea6"/><polyline fill="none" points="515.267,341.417 515.267,344.167" stroke="#9a9ea6"/><polyline fill="none" points="524.056,341.417 524.056,344.167" stroke="#9a9ea6"/><polyline fill="none" points="531.67,341.417 531.67,344.167" stroke="#9a9ea6"/><polyline fill="none" points="538.386,341.417 538.386,344.167" stroke="#9a9ea6"/><polyline fill="none" points="544.393,341.417 544.393,346.417" stroke="#9a9ea6"/><polyline fill="none" points="583.915,341.417 583.915,344.167" stroke="#9a9ea6"/><polyline fill="none" points="607.033,341.417 607.033,344.167" stroke="#9a9ea6"/><polyline fill="none" points="623.436,341.417 623.436,344.167" stroke="#9a9ea6"/><polyline fill="none" points="636.16,341.417 636.16,344.167" stroke="#9a9ea6"/><polyline fill="none" points="646.555,341.417 646.555,344.167" stroke="#9a9ea6"/><polyline fill="none" points="655.344,341.417 655.344,344.167" stroke="#9a9ea6"/><polyline fill="none" points="662.958,341.417 662.958,344.167" stroke="#9a9ea6"/><polyline fill="none" points="669.674,341.417 669.674,344.167" stroke="#9a9ea6"/><polyline fill="none" points="675.681,341.417 675.681,346.417" stroke="#9a9ea6"/><polyline fill="none" points="715.203,341.417 715.203,344.167" stroke="#9a9ea6"/><polyline fill="none" points="392.423,328.403 397.423,328.403" stroke="#9a9ea6"/><polyline fill="none" points="392.423,302.377 397.423,302.377" stroke="#9a9ea6"/><polyline fill="none" points="392.423,276.35 397.423,276.35" stroke="#9a9ea6"/><polyline fill="none" points="392.423,250.323 397.423,250.323" stroke="#9a9ea6"/><polyline fill="none" points="392.423,224.297 397.423,224.297" stroke="#9a9ea6"/><path d="M397.423,193.108 L722.124,193.108 L722.124,211.283 L397.423,211.283 Z" fill="#22262d"/><path fill="none" d="M397.423,193.108 L722.124,193.108 L722.124,211.283 L397.423,211.283 Z" stroke="#30363d"/><text x="559.774" y="202.196" font-family="sans-serif" font-size="11" text-anchor="middle" dominant-baseline="central" fill="#9198a1">text and fonts · 20</text><polyline fill="none" points="749.807,211.283 749.807,341.417" stroke="#30363d"/><polyline fill="none" points="881.095,211.283 881.095,341.417" stroke="#30363d"/><polyline fill="none" points="1012.383,211.283 1012.383,341.417" stroke="#30363d"/><polyline fill="none" points="734.124,341.417 1058.826,341.417" stroke="#9a9ea6"/><polyline fill="none" points="734.124,211.283 734.124,341.417" stroke="#9a9ea6"/><polyline fill="none" points="737.083,341.417 737.083,344.167" stroke="#9a9ea6"/><polyline fill="none" points="743.799,341.417 743.799,344.167" stroke="#9a9ea6"/><polyline fill="none" points="749.807,341.417 749.807,346.417" stroke="#9a9ea6"/><polyline fill="none" points="789.328,341.417 789.328,344.167" stroke="#9a9ea6"/><polyline fill="none" points="812.447,341.417 812.447,344.167" stroke="#9a9ea6"/><polyline fill="none" points="828.85,341.417 828.85,344.167" stroke="#9a9ea6"/><polyline fill="none" points="841.573,341.417 841.573,344.167" stroke="#9a9ea6"/><polyline fill="none" points="851.969,341.417 851.969,344.167" stroke="#9a9ea6"/><polyline fill="none" points="860.758,341.417 860.758,344.167" stroke="#9a9ea6"/><polyline fill="none" points="868.372,341.417 868.372,344.167" stroke="#9a9ea6"/><polyline fill="none" points="875.087,341.417 875.087,344.167" stroke="#9a9ea6"/><polyline fill="none" points="881.095,341.417 881.095,346.417" stroke="#9a9ea6"/><polyline fill="none" points="920.616,341.417 920.616,344.167" stroke="#9a9ea6"/><polyline fill="none" points="943.735,341.417 943.735,344.167" stroke="#9a9ea6"/><polyline fill="none" points="960.138,341.417 960.138,344.167" stroke="#9a9ea6"/><polyline fill="none" points="972.861,341.417 972.861,344.167" stroke="#9a9ea6"/><polyline fill="none" points="983.257,341.417 983.257,344.167" stroke="#9a9ea6"/><polyline fill="none" points="992.046,341.417 992.046,344.167" stroke="#9a9ea6"/><polyline fill="none" points="999.66,341.417 999.66,344.167" stroke="#9a9ea6"/><polyline fill="none" points="1006.375,341.417 1006.375,344.167" stroke="#9a9ea6"/><polyline fill="none" points="1012.383,341.417 1012.383,346.417" stroke="#9a9ea6"/><polyline fill="none" points="1051.905,341.417 1051.905,344.167" stroke="#9a9ea6"/><polyline fill="none" points="729.124,328.403 734.124,328.403" stroke="#9a9ea6"/><polyline fill="none" points="729.124,302.377 734.124,302.377" stroke="#9a9ea6"/><polyline fill="none" points="729.124,276.35 734.124,276.35" stroke="#9a9ea6"/><polyline fill="none" points="729.124,250.323 734.124,250.323" stroke="#9a9ea6"/><polyline fill="none" points="729.124,224.297 734.124,224.297" stroke="#9a9ea6"/><path d="M734.124,193.108 L1058.826,193.108 L1058.826,211.283 L734.124,211.283 Z" fill="#22262d"/><path fill="none" d="M734.124,193.108 L1058.826,193.108 L1058.826,211.283 L734.124,211.283 Z" stroke="#30363d"/><text x="896.475" y="202.196" font-family="sans-serif" font-size="11" text-anchor="middle" dominant-baseline="central" fill="#9198a1">images · 4</text><polyline fill="none" points="76.403,371.592 76.403,501.725" stroke="#30363d"/><polyline fill="none" points="207.691,371.592 207.691,501.725" stroke="#30363d"/><polyline fill="none" points="338.98,371.592 338.98,501.725" stroke="#30363d"/><polyline fill="none" points="60.721,501.725 385.423,501.725" stroke="#9a9ea6"/><polyline fill="none" points="60.721,371.592 60.721,501.725" stroke="#9a9ea6"/><polyline fill="none" points="63.68,501.725 63.68,504.475" stroke="#9a9ea6"/><polyline fill="none" points="70.396,501.725 70.396,504.475" stroke="#9a9ea6"/><polyline fill="none" points="76.403,501.725 76.403,506.725" stroke="#9a9ea6"/><text x="76.403" y="510.725" font-family="sans-serif" font-size="11" text-anchor="middle" dominant-baseline="hanging" fill="#6e7681">0.1×</text><polyline fill="none" points="115.925,501.725 115.925,504.475" stroke="#9a9ea6"/><polyline fill="none" points="139.044,501.725 139.044,504.475" stroke="#9a9ea6"/><polyline fill="none" points="155.447,501.725 155.447,504.475" stroke="#9a9ea6"/><polyline fill="none" points="168.17,501.725 168.17,504.475" stroke="#9a9ea6"/><polyline fill="none" points="178.565,501.725 178.565,504.475" stroke="#9a9ea6"/><polyline fill="none" points="187.355,501.725 187.355,504.475" stroke="#9a9ea6"/><polyline fill="none" points="194.968,501.725 194.968,504.475" stroke="#9a9ea6"/><polyline fill="none" points="201.684,501.725 201.684,504.475" stroke="#9a9ea6"/><polyline fill="none" points="207.691,501.725 207.691,506.725" stroke="#9a9ea6"/><text x="207.691" y="510.725" font-family="sans-serif" font-size="11" text-anchor="middle" dominant-baseline="hanging" fill="#6e7681">1×</text><polyline fill="none" points="247.213,501.725 247.213,504.475" stroke="#9a9ea6"/><polyline fill="none" points="270.332,501.725 270.332,504.475" stroke="#9a9ea6"/><polyline fill="none" points="286.735,501.725 286.735,504.475" stroke="#9a9ea6"/><polyline fill="none" points="299.458,501.725 299.458,504.475" stroke="#9a9ea6"/><polyline fill="none" points="309.853,501.725 309.853,504.475" stroke="#9a9ea6"/><polyline fill="none" points="318.643,501.725 318.643,504.475" stroke="#9a9ea6"/><polyline fill="none" points="326.256,501.725 326.256,504.475" stroke="#9a9ea6"/><polyline fill="none" points="332.972,501.725 332.972,504.475" stroke="#9a9ea6"/><polyline fill="none" points="338.98,501.725 338.98,506.725" stroke="#9a9ea6"/><text x="338.98" y="510.725" font-family="sans-serif" font-size="11" text-anchor="middle" dominant-baseline="hanging" fill="#6e7681">10×</text><polyline fill="none" points="378.501,501.725 378.501,504.475" stroke="#9a9ea6"/><polyline fill="none" points="55.721,488.712 60.721,488.712" stroke="#9a9ea6"/><text x="51.721" y="488.712" font-family="sans-serif" font-size="11" text-anchor="end" dominant-baseline="central" fill="#6e7681">pdf.js</text><polyline fill="none" points="55.721,462.685 60.721,462.685" stroke="#9a9ea6"/><text x="51.721" y="462.685" font-family="sans-serif" font-size="11" text-anchor="end" dominant-baseline="central" fill="#6e7681">hayro</text><polyline fill="none" points="55.721,436.658 60.721,436.658" stroke="#9a9ea6"/><text x="51.721" y="436.658" font-family="sans-serif" font-size="11" text-anchor="end" dominant-baseline="central" fill="#6e7681">PDFium</text><polyline fill="none" points="55.721,410.632 60.721,410.632" stroke="#9a9ea6"/><text x="51.721" y="410.632" font-family="sans-serif" font-size="11" text-anchor="end" dominant-baseline="central" fill="#6e7681">cera</text><polyline fill="none" points="55.721,384.605 60.721,384.605" stroke="#9a9ea6"/><text x="51.721" y="384.605" font-family="sans-serif" font-size="11" text-anchor="end" dominant-baseline="central" fill="#6e7681">MuPDF</text><path d="M60.721,353.417 L385.423,353.417 L385.423,371.592 L60.721,371.592 Z" fill="#22262d"/><path fill="none" d="M60.721,353.417 L385.423,353.417 L385.423,371.592 L60.721,371.592 Z" stroke="#30363d"/><text x="223.072" y="362.504" font-family="sans-serif" font-size="11" text-anchor="middle" dominant-baseline="central" fill="#9198a1">scans · 3</text><polyline fill="none" points="413.105,371.592 413.105,501.725" stroke="#30363d"/><polyline fill="none" points="544.393,371.592 544.393,501.725" stroke="#30363d"/><polyline fill="none" points="675.681,371.592 675.681,501.725" stroke="#30363d"/><polyline fill="none" points="397.423,501.725 722.124,501.725" stroke="#9a9ea6"/><polyline fill="none" points="397.423,371.592 397.423,501.725" stroke="#9a9ea6"/><polyline fill="none" points="400.382,501.725 400.382,504.475" stroke="#9a9ea6"/><polyline fill="none" points="407.097,501.725 407.097,504.475" stroke="#9a9ea6"/><polyline fill="none" points="413.105,501.725 413.105,506.725" stroke="#9a9ea6"/><text x="413.105" y="510.725" font-family="sans-serif" font-size="11" text-anchor="middle" dominant-baseline="hanging" fill="#6e7681">0.1×</text><polyline fill="none" points="452.626,501.725 452.626,504.475" stroke="#9a9ea6"/><polyline fill="none" points="475.745,501.725 475.745,504.475" stroke="#9a9ea6"/><polyline fill="none" points="492.148,501.725 492.148,504.475" stroke="#9a9ea6"/><polyline fill="none" points="504.871,501.725 504.871,504.475" stroke="#9a9ea6"/><polyline fill="none" points="515.267,501.725 515.267,504.475" stroke="#9a9ea6"/><polyline fill="none" points="524.056,501.725 524.056,504.475" stroke="#9a9ea6"/><polyline fill="none" points="531.67,501.725 531.67,504.475" stroke="#9a9ea6"/><polyline fill="none" points="538.386,501.725 538.386,504.475" stroke="#9a9ea6"/><polyline fill="none" points="544.393,501.725 544.393,506.725" stroke="#9a9ea6"/><text x="544.393" y="510.725" font-family="sans-serif" font-size="11" text-anchor="middle" dominant-baseline="hanging" fill="#6e7681">1×</text><polyline fill="none" points="583.915,501.725 583.915,504.475" stroke="#9a9ea6"/><polyline fill="none" points="607.033,501.725 607.033,504.475" stroke="#9a9ea6"/><polyline fill="none" points="623.436,501.725 623.436,504.475" stroke="#9a9ea6"/><polyline fill="none" points="636.16,501.725 636.16,504.475" stroke="#9a9ea6"/><polyline fill="none" points="646.555,501.725 646.555,504.475" stroke="#9a9ea6"/><polyline fill="none" points="655.344,501.725 655.344,504.475" stroke="#9a9ea6"/><polyline fill="none" points="662.958,501.725 662.958,504.475" stroke="#9a9ea6"/><polyline fill="none" points="669.674,501.725 669.674,504.475" stroke="#9a9ea6"/><polyline fill="none" points="675.681,501.725 675.681,506.725" stroke="#9a9ea6"/><text x="675.681" y="510.725" font-family="sans-serif" font-size="11" text-anchor="middle" dominant-baseline="hanging" fill="#6e7681">10×</text><polyline fill="none" points="715.203,501.725 715.203,504.475" stroke="#9a9ea6"/><polyline fill="none" points="392.423,488.712 397.423,488.712" stroke="#9a9ea6"/><polyline fill="none" points="392.423,462.685 397.423,462.685" stroke="#9a9ea6"/><polyline fill="none" points="392.423,436.658 397.423,436.658" stroke="#9a9ea6"/><polyline fill="none" points="392.423,410.632 397.423,410.632" stroke="#9a9ea6"/><polyline fill="none" points="392.423,384.605 397.423,384.605" stroke="#9a9ea6"/><path d="M397.423,353.417 L722.124,353.417 L722.124,371.592 L397.423,371.592 Z" fill="#22262d"/><path fill="none" d="M397.423,353.417 L722.124,353.417 L722.124,371.592 L397.423,371.592 Z" stroke="#30363d"/><text x="559.774" y="362.504" font-family="sans-serif" font-size="11" text-anchor="middle" dominant-baseline="central" fill="#9198a1">shadings · 11</text><polyline fill="none" points="749.807,371.592 749.807,501.725" stroke="#30363d"/><polyline fill="none" points="881.095,371.592 881.095,501.725" stroke="#30363d"/><polyline fill="none" points="1012.383,371.592 1012.383,501.725" stroke="#30363d"/><polyline fill="none" points="734.124,501.725 1058.826,501.725" stroke="#9a9ea6"/><polyline fill="none" points="734.124,371.592 734.124,501.725" stroke="#9a9ea6"/><polyline fill="none" points="737.083,501.725 737.083,504.475" stroke="#9a9ea6"/><polyline fill="none" points="743.799,501.725 743.799,504.475" stroke="#9a9ea6"/><polyline fill="none" points="749.807,501.725 749.807,506.725" stroke="#9a9ea6"/><text x="749.807" y="510.725" font-family="sans-serif" font-size="11" text-anchor="middle" dominant-baseline="hanging" fill="#6e7681">0.1×</text><polyline fill="none" points="789.328,501.725 789.328,504.475" stroke="#9a9ea6"/><polyline fill="none" points="812.447,501.725 812.447,504.475" stroke="#9a9ea6"/><polyline fill="none" points="828.85,501.725 828.85,504.475" stroke="#9a9ea6"/><polyline fill="none" points="841.573,501.725 841.573,504.475" stroke="#9a9ea6"/><polyline fill="none" points="851.969,501.725 851.969,504.475" stroke="#9a9ea6"/><polyline fill="none" points="860.758,501.725 860.758,504.475" stroke="#9a9ea6"/><polyline fill="none" points="868.372,501.725 868.372,504.475" stroke="#9a9ea6"/><polyline fill="none" points="875.087,501.725 875.087,504.475" stroke="#9a9ea6"/><polyline fill="none" points="881.095,501.725 881.095,506.725" stroke="#9a9ea6"/><text x="881.095" y="510.725" font-family="sans-serif" font-size="11" text-anchor="middle" dominant-baseline="hanging" fill="#6e7681">1×</text><polyline fill="none" points="920.616,501.725 920.616,504.475" stroke="#9a9ea6"/><polyline fill="none" points="943.735,501.725 943.735,504.475" stroke="#9a9ea6"/><polyline fill="none" points="960.138,501.725 960.138,504.475" stroke="#9a9ea6"/><polyline fill="none" points="972.861,501.725 972.861,504.475" stroke="#9a9ea6"/><polyline fill="none" points="983.257,501.725 983.257,504.475" stroke="#9a9ea6"/><polyline fill="none" points="992.046,501.725 992.046,504.475" stroke="#9a9ea6"/><polyline fill="none" points="999.66,501.725 999.66,504.475" stroke="#9a9ea6"/><polyline fill="none" points="1006.375,501.725 1006.375,504.475" stroke="#9a9ea6"/><polyline fill="none" points="1012.383,501.725 1012.383,506.725" stroke="#9a9ea6"/><text x="1012.383" y="510.725" font-family="sans-serif" font-size="11" text-anchor="middle" dominant-baseline="hanging" fill="#6e7681">10×</text><polyline fill="none" points="1051.905,501.725 1051.905,504.475" stroke="#9a9ea6"/><polyline fill="none" points="729.124,488.712 734.124,488.712" stroke="#9a9ea6"/><polyline fill="none" points="729.124,462.685 734.124,462.685" stroke="#9a9ea6"/><polyline fill="none" points="729.124,436.658 734.124,436.658" stroke="#9a9ea6"/><polyline fill="none" points="729.124,410.632 734.124,410.632" stroke="#9a9ea6"/><polyline fill="none" points="729.124,384.605 734.124,384.605" stroke="#9a9ea6"/><path d="M734.124,353.417 L1058.826,353.417 L1058.826,371.592 L734.124,371.592 Z" fill="#22262d"/><path fill="none" d="M734.124,353.417 L1058.826,353.417 L1058.826,371.592 L734.124,371.592 Z" stroke="#30363d"/><text x="896.475" y="362.504" font-family="sans-serif" font-size="11" text-anchor="middle" dominant-baseline="central" fill="#9198a1">transparency · 7</text><text x="559.773" y="23.488" font-family="sans-serif" font-size="16" text-anchor="middle" fill="#f0f6fc">One core, per page</text><text x="559.773" y="535.516" font-family="sans-serif" font-size="12" text-anchor="middle" fill="#9198a1">time relative to MuPDF (log scale; left is faster)</text><g clip-path="url(#c1)"><polyline fill="none" points="207.691,50.975 207.691,181.108" stroke="#6e7681" stroke-dasharray="4 3"/><use href="#m2" x="207.691" y="63.988"/><use href="#m2" x="214.931" y="116.042"/><use href="#m2" x="224.689" y="142.068"/><use href="#m2" x="282.683" y="168.095"/><use href="#m3" x="183.46" y="90.015"/><text x="217.129" y="63.988" font-family="sans-serif" font-size="11" dominant-baseline="central" fill="#9198a1">1.00×</text><text x="192.898" y="90.015" font-family="sans-serif" font-size="11" dominant-baseline="central" fill="#9198a1">0.65×</text><text x="224.369" y="116.042" font-family="sans-serif" font-size="11" dominant-baseline="central" fill="#9198a1">1.14×</text><text x="234.126" y="142.068" font-family="sans-serif" font-size="11" dominant-baseline="central" fill="#9198a1">1.35×</text><text x="292.121" y="168.095" font-family="sans-serif" font-size="11" dominant-baseline="central" fill="#9198a1">3.73×</text></g><g clip-path="url(#c4)"><polyline fill="none" points="544.393,50.975 544.393,181.108" stroke="#6e7681" stroke-dasharray="4 3"/><use href="#m2" x="544.393" y="63.988"/><use href="#m2" x="472.126" y="116.042"/><use href="#m2" x="426.478" y="142.068"/><use href="#m2" x="468.576" y="168.095"/><use href="#m3" x="420.541" y="90.015"/><text x="553.83" y="63.988" font-family="sans-serif" font-size="11" dominant-baseline="central" fill="#9198a1">1.00×</text><text x="429.979" y="90.015" font-family="sans-serif" font-size="11" dominant-baseline="central" fill="#9198a1">0.11×</text><text x="481.564" y="116.042" font-family="sans-serif" font-size="11" dominant-baseline="central" fill="#9198a1">0.28×</text><text x="435.916" y="142.068" font-family="sans-serif" font-size="11" dominant-baseline="central" fill="#9198a1">0.13×</text><text x="478.013" y="168.095" font-family="sans-serif" font-size="11" dominant-baseline="central" fill="#9198a1">0.26×</text></g><g clip-path="url(#c5)"><polyline fill="none" points="881.095,50.975 881.095,181.108" stroke="#6e7681" stroke-dasharray="4 3"/><use href="#m2" x="881.095" y="63.988"/><use href="#m2" x="862.729" y="116.042"/><use href="#m2" x="832.073" y="142.068"/><use href="#m2" x="940.882" y="168.095"/><use href="#m3" x="826.454" y="90.015"/><text x="890.532" y="63.988" font-family="sans-serif" font-size="11" dominant-baseline="central" fill="#9198a1">1.00×</text><text x="835.891" y="90.015" font-family="sans-serif" font-size="11" dominant-baseline="central" fill="#9198a1">0.38×</text><text x="872.166" y="116.042" font-family="sans-serif" font-size="11" dominant-baseline="central" fill="#9198a1">0.72×</text><text x="841.51" y="142.068" font-family="sans-serif" font-size="11" dominant-baseline="central" fill="#9198a1">0.42×</text><text x="950.32" y="168.095" font-family="sans-serif" font-size="11" dominant-baseline="central" fill="#9198a1">2.85×</text></g><g clip-path="url(#c6)"><polyline fill="none" points="207.691,211.283 207.691,341.417" stroke="#6e7681" stroke-dasharray="4 3"/><use href="#m2" x="207.691" y="224.297"/><use href="#m2" x="220.909" y="276.35"/><use href="#m2" x="246.123" y="302.377"/><use href="#m2" x="312.057" y="328.403"/><use href="#m3" x="196.833" y="250.323"/><text x="217.129" y="224.297" font-family="sans-serif" font-size="11" dominant-baseline="central" fill="#9198a1">1.00×</text><text x="206.27" y="250.323" font-family="sans-serif" font-size="11" dominant-baseline="central" fill="#9198a1">0.83×</text><text x="230.347" y="276.35" font-family="sans-serif" font-size="11" dominant-baseline="central" fill="#9198a1">1.26×</text><text x="255.561" y="302.377" font-family="sans-serif" font-size="11" dominant-baseline="central" fill="#9198a1">1.96×</text><text x="321.494" y="328.403" font-family="sans-serif" font-size="11" dominant-baseline="central" fill="#9198a1">6.24×</text></g><g clip-path="url(#c7)"><polyline fill="none" points="544.393,211.283 544.393,341.417" stroke="#6e7681" stroke-dasharray="4 3"/><use href="#m2" x="544.393" y="224.297"/><use href="#m2" x="559.848" y="276.35"/><use href="#m2" x="573.048" y="302.377"/><use href="#m2" x="642.928" y="328.403"/><use href="#m3" x="534.811" y="250.323"/><text x="553.83" y="224.297" font-family="sans-serif" font-size="11" dominant-baseline="central" fill="#9198a1">1.00×</text><text x="544.248" y="250.323" font-family="sans-serif" font-size="11" dominant-baseline="central" fill="#9198a1">0.85×</text><text x="569.285" y="276.35" font-family="sans-serif" font-size="11" dominant-baseline="central" fill="#9198a1">1.31×</text><text x="582.485" y="302.377" font-family="sans-serif" font-size="11" dominant-baseline="central" fill="#9198a1">1.65×</text><text x="652.365" y="328.403" font-family="sans-serif" font-size="11" dominant-baseline="central" fill="#9198a1">5.63×</text></g><g clip-path="url(#c8)"><polyline fill="none" points="881.095,211.283 881.095,341.417" stroke="#6e7681" stroke-dasharray="4 3"/><use href="#m2" x="881.095" y="224.297"/><use href="#m2" x="906.108" y="276.35"/><use href="#m2" x="894.393" y="302.377"/><use href="#m2" x="1006.581" y="328.403"/><use href="#m3" x="837.463" y="250.323"/><text x="890.532" y="224.297" font-family="sans-serif" font-size="11" dominant-baseline="central" fill="#9198a1">1.00×</text><text x="846.9" y="250.323" font-family="sans-serif" font-size="11" dominant-baseline="central" fill="#9198a1">0.47×</text><text x="915.545" y="276.35" font-family="sans-serif" font-size="11" dominant-baseline="central" fill="#9198a1">1.55×</text><text x="903.83" y="302.377" font-family="sans-serif" font-size="11" dominant-baseline="central" fill="#9198a1">1.26×</text><text x="1016.018" y="328.403" font-family="sans-serif" font-size="11" dominant-baseline="central" fill="#9198a1">9.03×</text></g><g clip-path="url(#c9)"><polyline fill="none" points="207.691,371.592 207.691,501.725" stroke="#6e7681" stroke-dasharray="4 3"/><use href="#m2" x="207.691" y="384.605"/><use href="#m2" x="234.527" y="436.658"/><use href="#m2" x="221.774" y="462.685"/><use href="#m2" x="280.403" y="488.712"/><use href="#m3" x="193.903" y="410.632"/><text x="217.129" y="384.605" font-family="sans-serif" font-size="11" dominant-baseline="central" fill="#9198a1">1.00×</text><text x="203.34" y="410.632" font-family="sans-serif" font-size="11" dominant-baseline="central" fill="#9198a1">0.79×</text><text x="243.965" y="436.658" font-family="sans-serif" font-size="11" dominant-baseline="central" fill="#9198a1">1.60×</text><text x="231.212" y="462.685" font-family="sans-serif" font-size="11" dominant-baseline="central" fill="#9198a1">1.28×</text><text x="289.841" y="488.712" font-family="sans-serif" font-size="11" dominant-baseline="central" fill="#9198a1">3.58×</text></g><g clip-path="url(#c10)"><polyline fill="none" points="544.393,371.592 544.393,501.725" stroke="#6e7681" stroke-dasharray="4 3"/><use href="#m2" x="544.393" y="384.605"/><use href="#m2" x="575.524" y="436.658"/><use href="#m2" x="573.231" y="462.685"/><use href="#m2" x="539.961" y="488.712"/><use href="#m3" x="502.326" y="410.632"/><text x="553.83" y="384.605" font-family="sans-serif" font-size="11" dominant-baseline="central" fill="#9198a1">1.00×</text><text x="511.763" y="410.632" font-family="sans-serif" font-size="11" dominant-baseline="central" fill="#9198a1">0.48×</text><text x="584.961" y="436.658" font-family="sans-serif" font-size="11" dominant-baseline="central" fill="#9198a1">1.73×</text><text x="582.668" y="462.685" font-family="sans-serif" font-size="11" dominant-baseline="central" fill="#9198a1">1.66×</text><text x="549.398" y="488.712" font-family="sans-serif" font-size="11" dominant-baseline="central" fill="#9198a1">0.93×</text></g><g clip-path="url(#c11)"><polyline fill="none" points="881.095,371.592 881.095,501.725" stroke="#6e7681" stroke-dasharray="4 3"/><use href="#m2" x="881.095" y="384.605"/><use href="#m2" x="857.418" y="436.658"/><use href="#m2" x="844.995" y="462.685"/><use href="#m2" x="919.067" y="488.712"/><use href="#m3" x="861.389" y="410.632"/><text x="890.532" y="384.605" font-family="sans-serif" font-size="11" dominant-baseline="central" fill="#9198a1">1.00×</text><text x="870.826" y="410.632" font-family="sans-serif" font-size="11" dominant-baseline="central" fill="#9198a1">0.71×</text><text x="866.855" y="436.658" font-family="sans-serif" font-size="11" dominant-baseline="central" fill="#9198a1">0.66×</text><text x="854.432" y="462.685" font-family="sans-serif" font-size="11" dominant-baseline="central" fill="#9198a1">0.53×</text><text x="928.504" y="488.712" font-family="sans-serif" font-size="11" dominant-baseline="central" fill="#9198a1">1.95×</text></g></svg>